DevanagariPaper.sfdir
StartChar: uni0915
Encoding: 2325 2325 0
Width: 1000
VWidth: 0
Flags: H
LayerCount: 2
Fore
SplineSet
500 582.051757812 m 4
 494.6796875 582.051757812 490.232421875 577.604492188 490.232421875 572.283203125 c 2
 490.232421875 205.982421875 l 2
 490.232421875 200.662109375 494.6796875 196.21484375 500 196.21484375 c 0
 505.3203125 196.21484375 509.767578125 200.662109375 509.767578125 205.982421875 c 2
 509.767578125 572.283203125 l 2
 509.767578125 577.604492188 505.3203125 582.051757812 500 582.051757812 c 4
261.293945312 572.283203125 m 0
 261.293945312 566.962890625 265.741210938 562.515625 271.0625 562.515625 c 2
 728.9375 562.515625 l 2
 734.258789062 562.515625 738.706054688 566.962890625 738.706054688 572.283203125 c 0
 738.706054688 577.604492188 734.258789062 582.051757812 728.9375 582.051757812 c 2
 271.0625 582.051757812 l 2
 265.741210938 582.051757812 261.293945312 577.604492188 261.293945312 572.283203125 c 0
316.849609375 379.365234375 m 0
 322.170898438 379.365234375 326.618164062 383.8125 326.618164062 389.1328125 c 0
 326.618164062 434.315429688 363.243164062 470.940429688 408.424804688 470.940429688 c 0
 453.606445312 470.940429688 490.232421875 434.315429688 490.232421875 389.1328125 c 0
 490.232421875 383.8125 494.6796875 379.365234375 500 379.365234375 c 0
 505.3203125 379.365234375 509.767578125 383.8125 509.767578125 389.1328125 c 0
 509.767578125 445.102539062 464.393554688 490.4765625 408.424804688 490.4765625 c 0
 352.45703125 490.4765625 307.08203125 445.102539062 307.08203125 389.1328125 c 0
 307.08203125 383.8125 311.529296875 379.365234375 316.849609375 379.365234375 c 0
316.849609375 398.901367188 m 0
 311.529296875 398.901367188 307.08203125 394.454101562 307.08203125 389.1328125 c 0
 307.08203125 333.165039062 352.45703125 287.790039062 408.424804688 287.790039062 c 0
 464.393554688 287.790039062 509.767578125 333.165039062 509.767578125 389.1328125 c 0
 509.767578125 394.454101562 505.3203125 398.901367188 500 398.901367188 c 0
 494.6796875 398.901367188 490.232421875 394.454101562 490.232421875 389.1328125 c 0
 490.232421875 343.951171875 453.606445312 307.326171875 408.424804688 307.326171875 c 0
 363.243164062 307.326171875 326.618164062 343.951171875 326.618164062 389.1328125 c 0
 326.618164062 394.454101562 322.170898438 398.901367188 316.849609375 398.901367188 c 0
500 379.365234375 m 0
 505.3203125 379.365234375 509.767578125 383.8125 509.767578125 389.1328125 c 0
 509.767578125 434.315429688 546.393554688 470.940429688 591.575195312 470.940429688 c 0
 636.756835938 470.940429688 673.381835938 434.315429688 673.381835938 389.1328125 c 0
 673.381835938 383.8125 677.829101562 379.365234375 683.150390625 379.365234375 c 0
 688.470703125 379.365234375 692.91796875 383.8125 692.91796875 389.1328125 c 0
 692.91796875 445.102539062 647.54296875 490.4765625 591.575195312 490.4765625 c 0
 535.606445312 490.4765625 490.232421875 445.102539062 490.232421875 389.1328125 c 0
 490.232421875 383.8125 494.6796875 379.365234375 500 379.365234375 c 0
544.020507812 310.264648438 m 0
 541.772460938 305.442382812 543.923828125 299.532226562 548.74609375 297.284179688 c 0
 580.1328125 282.650390625 616.818359375 285.0546875 646.02734375 303.661132812 c 0
 675.235351562 322.267578125 692.91796875 354.501953125 692.91796875 389.1328125 c 0
 692.91796875 394.454101562 688.470703125 398.901367188 683.150390625 398.901367188 c 0
 677.829101562 398.901367188 673.381835938 394.454101562 673.381835938 389.1328125 c 0
 673.381835938 361.178710938 659.107421875 335.157226562 635.530273438 320.138671875 c 0
 611.953125 305.118164062 582.338867188 303.176757812 557.001953125 314.990234375 c 0
 552.178710938 317.23828125 546.26953125 315.086914062 544.020507812 310.264648438 c 0
EndSplineSet
EndChar
StartChar: uni0916
Encoding: 2326 2326 1
GlifName: uni0916
Width: 35
VWidth: 0
Flags: HW
LayerCount: 3
Fore
SplineSet
23.3976232164 8.12411950695 m 0
 19.0179268991 8.12411950695 15.599609375 11.6808726312 15.599609375 16 c 0
 15.599609375 20.6385381224 19.5248763499 23.8526491375 23.612117437 23.8526491375 c 0
 25.4703467516 23.8526491375 27.3620559322 23.1882960214 28.93359375 21.69140625 c 1
 28.93359375 30.93359375 l 1
 10.41796875 30.93359375 l 1
 12.3060760431 29.3331331275 13.7231209725 27.1443680986 13.7231209725 23.9645315706 c 0
 13.7231209725 19.0785523845 9.83233796085 14.5525513595 4.73445189057 14.5525513595 c 0
 4.35405685063 14.5525513595 3.96694081232 14.5777515653 3.57421875 14.6298828125 c 1
 5.28814884721 9.98322788229 9.22009923325 6.47339223473 14.0283203125 5.0986328125 c 0
 15.5420658698 4.66629244828 17.0680809288 4.45244359577 18.5708536108 4.45244359577 c 0
 22.3634001891 4.45244359577 26.0079146994 5.81445952703 28.93359375 8.4638671875 c 1
 28.93359375 10.3291015625 l 1
 27.6667161541 9.0749564047 25.5847844892 8.12411950695 23.3976232164 8.12411950695 c 0
31.06640625 0 m 1
 28.93359375 0 l 1
 28.93359375 5.779296875 l 1
 25.8113975677 3.58422769431 22.0227612823 2.38592947699 18.226367932 2.38592947699 c 0
 12.6413809793 2.38592947699 8.52395091552 4.70570984886 5.5361328125 7.7431640625 c 0
 3.419921875 9.8935546875 1.2392578125 15.251953125 1.2392578125 15.251953125 c 2
 1.2021484375 15.30078125 1.5771484375 15.5458984375 1.98828125 15.7978515625 c 0
 2.021484375 16.3828125 2.064453125 17.052734375 2.025390625 17.06640625 c 1
 2.0673828125 17.056640625 3.580078125 16.724609375 4.2412109375 16.708984375 c 0
 8.4702266505 16.61034844 11.6073422542 20.003358062 11.6073422542 23.8692989394 c 0
 11.6073422542 27.7279357441 9.05061757831 30.3575607799 5.908203125 30.93359375 c 2
 0 30.93359375 l 1
 0 33.06640625 l 1
 36 33.06640625 l 1
 36 30.93359375 l 1
 31.06640625 30.93359375 l 1
 31.06640625 0 l 1
2.025390625 17.06640625 m 1
 2.025390625 17.06640625 2.025390625 17.06640625 2.025390625 17.06640625 c 1
23.4997970598 10.232609536 m 0
 26.1114859375 10.232609536 28.2789973476 12.0381174515 28.93359375 14.1533203125 c 2
 28.93359375 17.8271484375 l 2
 28.1237423616 19.9358180904 26.2333050539 21.756990999 23.5575669792 21.756990999 c 0
 20.2533676873 21.756990999 17.7333984375 19.2507817458 17.7333984375 16 c 0
 17.7333984375 12.7335832755 20.4675717615 10.232609536 23.4997970598 10.232609536 c 0
EndSplineSet
Validated: 524321
EndChar
StartChar: uni0917
Encoding: 2327 2327 2
GlifName: uni0917
Width: 379
VWidth: 0
Flags: HW
LayerCount: 2
Fore
SplineSet
128.955078125 627.838867188 m 0
 123.633789062 627.838867188 119.186523438 623.391601562 119.186523438 618.071289062 c 2
 119.186523438 389.1328125 l 2
 119.186523438 383.8125 123.633789062 379.365234375 128.955078125 379.365234375 c 0
 134.275390625 379.365234375 138.72265625 383.8125 138.72265625 389.1328125 c 2
 138.72265625 618.071289062 l 2
 138.72265625 623.391601562 134.275390625 627.838867188 128.955078125 627.838867188 c 0
21.5068359375 389.1328125 m 0
 21.5068359375 356.76171875 47.7490234375 330.525390625 80.115234375 330.525390625 c 0
 112.486328125 330.525390625 138.72265625 356.765625 138.72265625 389.1328125 c 0
 138.72265625 421.502929688 112.482421875 447.741210938 80.115234375 447.741210938 c 0
 47.744140625 447.741210938 21.5068359375 421.499023438 21.5068359375 389.1328125 c 0
41.04296875 389.1328125 m 0
 41.04296875 410.712890625 58.5390625 428.205078125 80.115234375 428.205078125 c 0
 101.6953125 428.205078125 119.186523438 410.708984375 119.186523438 389.1328125 c 0
 119.186523438 367.551757812 101.69140625 350.061523438 80.115234375 350.061523438 c 0
 58.53515625 350.061523438 41.04296875 367.556640625 41.04296875 389.1328125 c 0
251.0546875 627.838867188 m 0
 245.734375 627.838867188 241.287109375 623.391601562 241.287109375 618.071289062 c 2
 241.287109375 251.770507812 l 2
 241.287109375 246.44921875 245.734375 242.002929688 251.0546875 242.002929688 c 0
 256.375976562 242.002929688 260.823242188 246.44921875 260.823242188 251.770507812 c 2
 260.823242188 618.071289062 l 2
 260.823242188 623.391601562 256.375976562 627.838867188 251.0546875 627.838867188 c 0
19.98046875 618.071289062 m 0
 19.98046875 612.75 24.427734375 608.302734375 29.748046875 608.302734375 c 2
 350.26171875 608.302734375 l 2
 355.58203125 608.302734375 360.029296875 612.75 360.029296875 618.071289062 c 0
 360.029296875 623.391601562 355.58203125 627.838867188 350.26171875 627.838867188 c 2
 29.748046875 627.838867188 l 2
 24.427734375 627.838867188 19.98046875 623.391601562 19.98046875 618.071289062 c 0
EndSplineSet
Validated: 524293
EndChar
StartChar: uni0918
Encoding: 2328 2328 3
GlifName: uni0918
Width: 1000
VWidth: 0
Flags: H
LayerCount: 2
Fore
SplineSet
417.76953125 620.915039062 m 0
 416.220703125 626.004882812 410.670898438 628.96484375 405.581054688 627.416015625 c 0
 365.422851562 615.193359375 341.446289062 574.112304688 350.55078125 533.13671875 c 0
 359.657226562 492.161132812 398.77734375 465.100585938 440.33203125 471.038085938 c 0
 445.598632812 471.791015625 449.372070312 476.822265625 448.620117188 482.08984375 c 0
 447.8671875 487.357421875 442.8359375 491.130859375 437.568359375 490.377929688 c 0
 406.119140625 485.884765625 376.513671875 506.362304688 369.62109375 537.375 c 0
 362.73046875 568.385742188 380.875976562 599.475585938 411.268554688 608.725585938 c 0
 416.359375 610.275390625 419.319335938 615.825195312 417.76953125 620.915039062 c 0
447.48828125 485.452148438 m 0
 444.904296875 490.103515625 438.857421875 491.831054688 434.206054688 489.247070312 c 0
 392.865234375 466.278320312 376.9453125 414.82421875 398.094726562 372.521484375 c 0
 419.24609375 330.220703125 469.961914062 312.080078125 513.142578125 331.375 c 0
 518 333.545898438 520.24609375 339.419921875 518.076171875 344.278320312 c 0
 515.905273438 349.135742188 510.030273438 351.381835938 505.172851562 349.2109375 c 0
 471.54296875 334.184570312 432.04296875 348.310546875 415.568359375 381.2578125 c 0
 399.096679688 414.204101562 411.493164062 454.279296875 443.694335938 472.169921875 c 0
 448.344726562 474.75390625 450.072265625 480.80078125 447.48828125 485.452148438 c 0
499.814453125 337.442382812 m 0
 501.3671875 332.353515625 506.918945312 329.397460938 512.0078125 330.950195312 c 0
 563.459960938 346.649414062 606.333007812 382.5703125 630.799804688 430.477539062 c 0
 633.219726562 435.216796875 631.28125 441.200195312 626.54296875 443.620117188 c 0
 621.8046875 446.040039062 615.821289062 444.1015625 613.401367188 439.36328125 c 0
 591.342773438 396.172851562 552.692382812 363.7890625 506.306640625 349.635742188 c 0
 501.217773438 348.083007812 498.26171875 342.53125 499.814453125 337.442382812 c 0
622.100585938 627.838867188 m 0
 616.779296875 627.838867188 612.33203125 623.391601562 612.33203125 618.071289062 c 2
 612.33203125 251.770507812 l 2
 612.33203125 246.44921875 616.779296875 242.002929688 622.100585938 242.002929688 c 0
 627.420898438 242.002929688 631.868164062 246.44921875 631.868164062 251.770507812 c 2
 631.868164062 618.071289062 l 2
 631.868164062 623.391601562 627.420898438 627.838867188 622.100585938 627.838867188 c 0
284.188476562 618.071289062 m 0
 284.188476562 612.75 288.635742188 608.302734375 293.956054688 608.302734375 c 2
 706.043945312 608.302734375 l 2
 711.364257812 608.302734375 715.811523438 612.75 715.811523438 618.071289062 c 0
 715.811523438 623.391601562 711.364257812 627.838867188 706.043945312 627.838867188 c 2
 293.956054688 627.838867188 l 2
 288.635742188 627.838867188 284.188476562 623.391601562 284.188476562 618.071289062 c 0
EndSplineSet
Validated: 524325
EndChar
StartChar: uni0919
Encoding: 2329 2329 4
Width: 1000
VWidth: 0
Flags: H
LayerCount: 2
Fore
SplineSet
573.259765625 591.208984375 m 0
 567.939453125 591.208984375 563.4921875 586.76171875 563.4921875 581.440429688 c 2
 563.4921875 532.600585938 l 2
 563.4921875 527.280273438 567.939453125 522.833007812 573.259765625 522.833007812 c 0
 578.581054688 522.833007812 583.028320312 527.280273438 583.028320312 532.600585938 c 2
 583.028320312 581.440429688 l 2
 583.028320312 586.76171875 578.581054688 591.208984375 573.259765625 591.208984375 c 0
583.028320312 532.600585938 m 0
 583.028320312 537.921875 578.581054688 542.369140625 573.259765625 542.369140625 c 2
 451.16015625 542.369140625 l 2
 445.838867188 542.369140625 441.391601562 537.921875 441.391601562 532.600585938 c 0
 441.391601562 527.280273438 445.838867188 522.833007812 451.16015625 522.833007812 c 2
 573.259765625 522.833007812 l 2
 578.581054688 522.833007812 583.028320312 527.280273438 583.028320312 532.600585938 c 0
460.927734375 532.600585938 m 0
 460.927734375 537.921875 456.48046875 542.369140625 451.16015625 542.369140625 c 0
 418.793945312 542.369140625 392.551757812 516.1328125 392.551757812 483.760742188 c 0
 392.551757812 451.393554688 418.790039062 425.15234375 451.16015625 425.15234375 c 0
 456.48046875 425.15234375 460.927734375 429.599609375 460.927734375 434.920898438 c 0
 460.927734375 440.241210938 456.48046875 444.688476562 451.16015625 444.688476562 c 0
 429.583984375 444.688476562 412.087890625 462.1796875 412.087890625 483.760742188 c 0
 412.087890625 505.336914062 429.580078125 522.833007812 451.16015625 522.833007812 c 0
 456.48046875 522.833007812 460.927734375 527.280273438 460.927734375 532.600585938 c 0
441.391601562 434.920898438 m 0
 441.391601562 429.599609375 445.838867188 425.15234375 451.16015625 425.15234375 c 2
 536.629882812 425.15234375 l 2
 541.951171875 425.15234375 546.3984375 429.599609375 546.3984375 434.920898438 c 0
 546.3984375 440.241210938 541.951171875 444.688476562 536.629882812 444.688476562 c 2
 451.16015625 444.688476562 l 2
 445.838867188 444.688476562 441.391601562 440.241210938 441.391601562 434.920898438 c 0
526.862304688 434.920898438 m 0
 526.862304688 429.599609375 531.309570312 425.15234375 536.629882812 425.15234375 c 0
 571.698242188 425.15234375 600.122070312 396.7265625 600.122070312 361.66015625 c 0
 600.122070312 326.59375 571.697265625 298.168945312 536.629882812 298.168945312 c 0
 531.309570312 298.168945312 526.862304688 293.721679688 526.862304688 288.400390625 c 0
 526.862304688 283.080078125 531.309570312 278.6328125 536.629882812 278.6328125 c 0
 582.485351562 278.6328125 619.658203125 315.807617188 619.658203125 361.66015625 c 0
 619.658203125 407.514648438 582.484375 444.688476562 536.629882812 444.688476562 c 0
 531.309570312 444.688476562 526.862304688 440.241210938 526.862304688 434.920898438 c 0
546.3984375 288.400390625 m 0
 546.3984375 293.721679688 541.951171875 298.168945312 536.629882812 298.168945312 c 2
 414.530273438 298.168945312 l 2
 409.208984375 298.168945312 404.76171875 293.721679688 404.76171875 288.400390625 c 0
 404.76171875 283.080078125 409.208984375 278.6328125 414.530273438 278.6328125 c 2
 536.629882812 278.6328125 l 2
 541.951171875 278.6328125 546.3984375 283.080078125 546.3984375 288.400390625 c 0
343.711914062 581.440429688 m 0
 343.711914062 576.120117188 348.159179688 571.672851562 353.479492188 571.672851562 c 2
 646.520507812 571.672851562 l 2
 651.840820312 571.672851562 656.288085938 576.120117188 656.288085938 581.440429688 c 0
 656.288085938 586.76171875 651.840820312 591.208984375 646.520507812 591.208984375 c 2
 353.479492188 591.208984375 l 2
 348.159179688 591.208984375 343.711914062 586.76171875 343.711914062 581.440429688 c 0
599.948242188 452.81640625 m 2
 596.984375 449.852539062 595.767578125 443.18359375 599.948242188 439.002929688 c 2
 610.309570312 428.641601562 l 2
 613.2734375 425.677734375 619.942382812 424.4609375 624.123046875 428.641601562 c 2
 634.483398438 439.002929688 l 2
 637.448242188 441.966796875 638.665039062 448.635742188 634.483398438 452.81640625 c 2
 624.123046875 463.177734375 l 2
 621.158203125 466.141601562 614.490234375 467.358398438 610.309570312 463.177734375 c 2
 599.948242188 452.81640625 l 2
EndSplineSet
EndChar
StartChar: uni091A
Encoding: 2330 2330 5
GlifName: uni091A_
Width: 1000
VWidth: 0
Flags: H
LayerCount: 2
Fore
SplineSet
637.362304688 627.838867188 m 0
 632.041992188 627.838867188 627.594726562 623.391601562 627.594726562 618.071289062 c 2
 627.594726562 251.770507812 l 2
 627.594726562 246.44921875 632.041992188 242.002929688 637.362304688 242.002929688 c 0
 642.68359375 242.002929688 647.130859375 246.44921875 647.130859375 251.770507812 c 2
 647.130859375 618.071289062 l 2
 647.130859375 623.391601562 642.68359375 627.838867188 637.362304688 627.838867188 c 0
307.08203125 434.920898438 m 0
 307.08203125 429.599609375 311.529296875 425.15234375 316.849609375 425.15234375 c 2
 408.424804688 425.15234375 l 2
 413.74609375 425.15234375 418.193359375 429.599609375 418.193359375 434.920898438 c 0
 418.193359375 440.241210938 413.74609375 444.688476562 408.424804688 444.688476562 c 2
 316.849609375 444.688476562 l 2
 311.529296875 444.688476562 307.08203125 440.241210938 307.08203125 434.920898438 c 0
414.153320312 442.833007812 m 0
 409.842773438 445.953125 403.6328125 444.958984375 400.512695312 440.6484375 c 0
 373.512695312 403.354492188 375.970703125 352.323242188 406.435546875 317.797851562 c 0
 436.8984375 283.2734375 487.224609375 274.477539062 527.591796875 296.625 c 0
 532.256835938 299.184570312 534.016601562 305.22265625 531.458007812 309.887695312 c 0
 528.8984375 314.552734375 522.860351562 316.3125 518.1953125 313.752929688 c 0
 485.838867188 296.000976562 445.501953125 303.049804688 421.083984375 330.72265625 c 0
 396.666015625 358.396484375 394.6953125 399.298828125 416.336914062 429.192382812 c 0
 419.45703125 433.501953125 418.462890625 439.712890625 414.153320312 442.833007812 c 0
514.435546875 300.303710938 m 0
 517.096679688 295.696289062 523.171875 294.069335938 527.779296875 296.73046875 c 0
 580.896484375 327.409179688 622.537109375 374.602539062 646.36328125 431.125976562 c 0
 648.430664062 436.029296875 646.059570312 441.854492188 641.157226562 443.921875 c 0
 636.25390625 445.98828125 630.428710938 443.618164062 628.361328125 438.71484375 c 0
 606.188476562 386.114257812 567.438476562 342.197265625 518.008789062 313.647460938 c 0
 513.401367188 310.986328125 511.774414062 304.911132812 514.435546875 300.303710938 c 0
284.188476562 618.071289062 m 0
 284.188476562 612.75 288.635742188 608.302734375 293.956054688 608.302734375 c 2
 706.043945312 608.302734375 l 2
 711.364257812 608.302734375 715.811523438 612.75 715.811523438 618.071289062 c 0
 715.811523438 623.391601562 711.364257812 627.838867188 706.043945312 627.838867188 c 2
 293.956054688 627.838867188 l 2
 288.635742188 627.838867188 284.188476562 623.391601562 284.188476562 618.071289062 c 0
EndSplineSet
Validated: 524325
EndChar
StartChar: uni091B
Encoding: 2331 2331 6
GlifName: uni091B_
Width: 33
VWidth: 0
Flags: HW
LayerCount: 3
Fore
SplineSet
8.708984375 26.0634765625 m 1
 6.63855519029 25.9286852893 4.89539575759 24.8410350342 4.89539575759 22.6358019785 c 0
 4.89539575759 20.6302642002 6.54917312051 19.0859493717 8.41974113515 19.0859493717 c 0
 8.99539133864 19.0859493717 9.5897641883 19.2448635801 10.158203125 19.611328125 c 2
 10.685546875 18.7412109375 l 2
 10.9634697493 18.5023588798 11.2109460165 18.2892653774 11.22265625 18.2978515625 c 1
 9.68771243298 17.0188518755 8.15898801951 14.8470679575 8.15898801951 12.105516957 c 0
 8.15898801951 7.67100766503 11.7875723651 4.27211832689 15.9504235776 4.27211832689 c 0
 20.161772193 4.27211832689 22.1508016432 7.03277229379 23.8076171875 9.9013671875 c 0
 25.4122413723 12.6735242853 26.6417287282 16.1075739492 26.8798828125 20.0869140625 c 1
 26.461732126 19.8069883278 25.9841805943 19.6279296875 25.533203125 19.6279296875 c 0
 23.6801016603 19.6279296875 22.546875 21.7026455918 22.546875 23.681640625 c 0
 22.546875 25.50057464 23.3547210618 26.9784369416 24.6796875 27.544921875 c 1
 24.6796875 32.4287109375 l 1
 2.599609375 32.4287109375 l 1
 2.599609375 34.134765625 l 1
 31.400390625 34.134765625 l 1
 31.400390625 32.4287109375 l 1
 26.38671875 32.4287109375 l 1
 26.38671875 27.544921875 l 1
 28.3523266824 26.7057796945 28.6100391807 24.3928573483 28.6100391807 21.6544541662 c 0
 28.6100391807 17.6972867311 27.6418975237 13.872013115 26.2978515625 10.9873046875 c 0
 25.6869702355 9.67799942413 24.173828125 7.3203125 24.173828125 7.3203125 c 2
 24.1589803015 7.29218014514 23.0719633301 7.90015159192 22.75 8.0673828125 c 2
 24.1337890625 7.2451171875 l 1
 22.6137131236 4.74616788815 19.755001869 2.58846513172 16.0310762955 2.58846513172 c 0
 10.6587352065 2.58846513172 6.47944487342 6.58511433099 6.47944487342 11.9951473143 c 0
 6.47944487342 14.1070067742 7.17995987632 16.0640896781 8.0869140625 17.4130859375 c 1
 5.53747235967 17.5316513218 3.17390145629 19.6864677676 3.17390145629 22.4844434337 c 0
 3.17390145629 25.0693706737 4.84783479217 26.9109368969 6.892578125 27.521484375 c 0
 7.37837295398 27.6656986705 8.22265625 27.69921875 8.22265625 27.69921875 c 2
 8.28588671248 27.7124984144 8.64341204354 26.0681635029 8.708984375 26.0634765625 c 1
24.2529296875 23.681640625 m 0
 24.2529296875 22.7045848422 24.6751081386 21.3349609375 25.533203125 21.3349609375 c 0
 26.3916942549 21.3349609375 26.8134765625 22.7063372828 26.8134765625 23.681640625 c 0
 26.8134765625 24.659049387 26.3912339429 26.0283203125 25.533203125 26.0283203125 c 0
 24.6746291693 26.0283203125 24.2529296875 24.6565884581 24.2529296875 23.681640625 c 0
11.22265625 18.2978515625 m 1
 11.22265625 18.2978515625 11.22265625 18.2978515625 11.22265625 18.2978515625 c 1
22.662109375 8.1083984375 m 1
 22.662109375 8.1083984375 22.662109375 8.1083984375 22.662109375 8.1083984375 c 1
EndSplineSet
Validated: 1
EndChar
StartChar: uni091C
Encoding: 2332 2332 7
GlifName: uni091C_
Width: 34
VWidth: 0
Flags: HW
LayerCount: 3
Fore
SplineSet
30.5439453125 0.6611328125 m 1
 28.49609375 0.6611328125 l 1
 28.49609375 17.5576171875 l 1
 23.564453125 17.5576171875 l 1
 24.0490242372 16.4129846273 24.275880266 15.2588555647 24.275880266 14.1411485199 c 0
 24.275880266 12.0826149413 23.5063773675 10.1476260108 22.16015625 8.623046875 c 0
 20.891840411 7.18504504432 19.0507670128 6.19700467305 17.2734375 5.88671875 c 0
 16.8057193564 5.80579884775 16.3071007465 5.76473629152 15.8080837004 5.76473629152 c 0
 15.3550088605 5.76473629152 14.9016055715 5.79858601386 14.470703125 5.8671875 c 0
 13.5659713297 6.01345832147 12.0771484375 6.6904296875 12.0771484375 6.6904296875 c 2
 12.0293057528 6.70261643407 12.2263050426 7.39257377828 12.38671875 7.9541015625 c 2
 11.728515625 6.8134765625 l 1
 8.37231065535 8.76428564826 5.54298014808 11.4792703726 3.4814453125 14.75390625 c 0
 2.80592494343 15.82921875 1.7734375 18.03515625 1.7734375 18.03515625 c 2
 1.75375259867 18.0707962851 3.55632713503 19.0349530243 3.548828125 19.0537109375 c 1
 3.77237762598 18.3829529374 4.75057656556 16.5849832521 5.2158203125 15.845703125 c 0
 7.10360300421 12.8434445158 9.67032005105 10.3588861245 12.75 8.5859375 c 0
 13.6158960654 8.17417524111 14.6539596235 7.81132630276 15.8620032751 7.81132630276 c 0
 16.2015554531 7.81132630276 16.5545366984 7.83999273487 16.9208984375 7.904296875 c 0
 19.8049105817 8.40789991353 22.2298061832 10.9638423407 22.2298061832 14.2856376591 c 0
 22.2298061832 15.6200006267 21.8713214169 16.8410694049 21.0107421875 17.98046875 c 1
 21.83984375 18.58203125 l 1
 21.83984375 19.60546875 l 1
 28.49609375 19.60546875 l 1
 28.49609375 30.357421875 l 1
 0.7197265625 30.357421875 l 1
 0.7197265625 32.4052734375 l 1
 35.2802734375 32.4052734375 l 1
 35.2802734375 30.357421875 l 1
 30.5439453125 30.357421875 l 1
 30.5439453125 0.6611328125 l 1
3.548828125 19.0537109375 m 1
 3.548828125 19.0537109375 3.548828125 19.0537109375 3.548828125 19.0537109375 c 1
EndSplineSet
Validated: 33
EndChar
StartChar: uni091D
Encoding: 2333 2333 8
GlifName: uni091D_
Width: 40
VWidth: 0
Flags: HW
LayerCount: 3
Fore
SplineSet
18.9287109375 21.06640625 m 2
 21.5670213851 20.9787167409 23.9358039735 19.2366820461 25.1162109375 17.06640625 c 1
 31.93359375 17.06640625 l 1
 31.93359375 34.93359375 l 1
 23.1953125 34.93359375 l 1
 23.1953125 30.6669921875 l 1
 22.1279296875 30.6669921875 l 1
 22.1279296875 29.599609375 l 1
 11.4619140625 29.6083984375 l 1
 9.36671302391 29.3978758451 8.26171875 27.5470536883 8.26171875 25.3330078125 c 0
 8.26171875 23.3508681263 9.44954663071 21.0602768431 11.2956966735 21.0602768431 c 0
 11.3505264136 21.0602768431 11.4059368337 21.0622972832 11.4619140625 21.06640625 c 2
 18.9287109375 21.06640625 l 2
11.4619140625 18.93359375 m 2
 8.31523567283 19.0809941634 6.1279296875 21.9591079143 6.1279296875 25.3330078125 c 0
 6.1279296875 27.9478620745 7.47067498554 30.2232659588 9.302734375 31.1904296875 c 0
 10.3274796357 31.7328463548 10.8989531833 31.5934844812 11.4619140625 31.7333984375 c 2
 21.0615234375 31.7333984375 l 1
 21.0615234375 34.93359375 l 1
 3 34.93359375 l 1
 3 37.06640625 l 1
 39 37.06640625 l 1
 39 34.93359375 l 1
 34.06640625 34.93359375 l 1
 34.06640625 4 l 1
 31.93359375 4 l 1
 31.93359375 14.93359375 l 1
 25.9814453125 14.93359375 l 2
 26.2470703125 13.998046875 26.39453125 13.001953125 26.39453125 12 c 0
 26.39453125 8.28364347422 24.5192838117 5.06082030472 21.91796875 3.685546875 c 0
 20.6343538516 3.00632464174 19.4634583221 3.06570780971 18.9287109375 2.93359375 c 2
 10.9287109375 2.93359375 l 1
 10.9287109375 0 l 1
 8.794921875 0 l 1
 8.794921875 2.93359375 l 1
 8.26171875 2.93359375 l 2
 6.60990419804 3.05595038348 5.55359424529 4.5716867836 5.55359424529 6.12786788522 c 0
 5.55359424529 6.94011060553 5.84136241422 7.76337158584 6.482421875 8.4052734375 c 0
 6.96500794944 8.88669102265 7.61445654442 9.15527010007 8.27651924243 9.15527010007 c 0
 8.79763247088 9.15527010007 9.32656057964 8.9888759191 9.7880859375 8.62890625 c 0
 10.216796875 8.2939453125 10.615234375 7.69140625 10.787109375 7.177734375 c 0
 10.8720818015 6.92232306985 10.8930749892 6.60793090398 10.8930749892 6.35959671407 c 0
 10.8930749892 6.11703773789 10.873046875 5.9375 10.873046875 5.9375 c 1
 10.9287109375 5.599609375 l 1
 10.9287109375 5.06640625 l 1
 18.9287109375 5.056640625 l 1
 22.3825061302 5.36759324685 24.26171875 8.38317248249 24.26171875 12 c 0
 24.26171875 15.3221606925 22.2346119224 18.937692526 19.1114422473 18.937692526 c 0
 19.0509408699 18.937692526 18.9900281772 18.9363357393 18.9287109375 18.93359375 c 2
 11.4619140625 18.93359375 l 2
8.845703125 5.599609375 m 1
 8.83003973906 6.21831311944 8.6686217358 7.06067621131 8.29853932968 7.06067621131 c 0
 8.20869462738 7.06067621131 8.10655186992 7.01102985271 7.9912109375 6.896484375 c 0
 7.78095627247 6.68622970997 7.67103184381 6.36334912793 7.67103184381 6.04052354727 c 0
 7.67103184381 5.71299283223 7.7841838874 5.38551873352 8.0205078125 5.17578125 c 0
 8.12101914579 5.08636082245 8.1285362873 5.04811180202 8.17542638712 5.04811180202 c 0
 8.19459561795 5.04811180202 8.2203451399 5.05450425257 8.26171875 5.06640625 c 2
 8.794921875 5.06640625 l 1
 8.845703125 5.599609375 l 1
EndSplineSet
Validated: 1
EndChar
StartChar: uni091E
Encoding: 2334 2334 9
GlifName: uni091E_
Width: 1000
VWidth: 0
Flags: H
LayerCount: 2
Fore
SplineSet
637.362304688 627.838867188 m 0
 632.041992188 627.838867188 627.594726562 623.391601562 627.594726562 618.071289062 c 2
 627.594726562 251.770507812 l 2
 627.594726562 246.44921875 632.041992188 242.002929688 637.362304688 242.002929688 c 0
 642.68359375 242.002929688 647.130859375 246.44921875 647.130859375 251.770507812 c 2
 647.130859375 618.071289062 l 2
 647.130859375 623.391601562 642.68359375 627.838867188 637.362304688 627.838867188 c 0
531.440429688 434.920898438 m 0
 531.440429688 429.599609375 535.887695312 425.15234375 541.208984375 425.15234375 c 2
 637.362304688 425.15234375 l 2
 642.68359375 425.15234375 647.130859375 429.599609375 647.130859375 434.920898438 c 0
 647.130859375 440.241210938 642.68359375 444.688476562 637.362304688 444.688476562 c 2
 541.208984375 444.688476562 l 2
 535.887695312 444.688476562 531.440429688 440.241210938 531.440429688 434.920898438 c 0
445.486328125 506.619140625 m 0
 446.336914062 501.366210938 451.4375 497.6875 456.690429688 498.538085938 c 0
 481.870117188 502.6171875 507.084960938 491.459960938 521.002929688 470.083007812 c 0
 534.920898438 448.70703125 534.920898438 421.1328125 521.002929688 399.756835938 c 0
 507.084960938 378.380859375 481.869140625 367.224609375 456.690429688 371.302734375 c 0
 451.4375 372.153320312 446.336914062 368.474609375 445.486328125 363.22265625 c 0
 444.634765625 357.969726562 448.314453125 352.869140625 453.56640625 352.018554688 c 0
 486.379882812 346.703125 519.23828125 361.2421875 537.374023438 389.09765625 c 0
 555.512695312 416.955078125 555.51171875 452.88671875 537.374023438 480.743164062 c 0
 519.23828125 508.599609375 486.37890625 523.137695312 453.56640625 517.823242188 c 0
 448.314453125 516.97265625 444.634765625 511.87109375 445.486328125 506.619140625 c 0
464.721679688 359.8203125 m 0
 465.723632812 365.045898438 462.193359375 370.251953125 456.967773438 371.25390625 c 0
 401.189453125 381.951171875 355.225585938 421.34765625 336.122070312 474.8359375 c 0
 334.33203125 479.846679688 328.6484375 482.5390625 323.637695312 480.75 c 0
 318.626953125 478.959960938 315.934570312 473.276367188 317.724609375 468.265625 c 0
 339.154296875 408.262695312 390.715820312 364.068359375 453.288085938 352.067382812 c 0
 458.513671875 351.065429688 463.71875 354.594726562 464.721679688 359.8203125 c 0
284.188476562 618.071289062 m 0
 284.188476562 612.75 288.635742188 608.302734375 293.956054688 608.302734375 c 2
 706.043945312 608.302734375 l 2
 711.364257812 608.302734375 715.811523438 612.75 715.811523438 618.071289062 c 0
 715.811523438 623.391601562 711.364257812 627.838867188 706.043945312 627.838867188 c 2
 293.956054688 627.838867188 l 2
 288.635742188 627.838867188 284.188476562 623.391601562 284.188476562 618.071289062 c 0
EndSplineSet
Validated: 524325
EndChar
StartChar: uni091F
Encoding: 2335 2335 10
Width: 1000
VWidth: 0
Flags: H
LayerCount: 2
Fore
SplineSet
561.049804688 627.838867188 m 0
 555.729492188 627.838867188 551.282226562 623.391601562 551.282226562 618.071289062 c 2
 551.282226562 495.970703125 l 2
 551.282226562 490.650390625 555.729492188 486.203125 561.049804688 486.203125 c 0
 566.37109375 486.203125 570.818359375 490.650390625 570.818359375 495.970703125 c 2
 570.818359375 618.071289062 l 2
 570.818359375 623.391601562 566.37109375 627.838867188 561.049804688 627.838867188 c 0
570.802734375 495.415039062 m 0
 571.104492188 500.727539062 566.91796875 505.420898438 561.60546875 505.72265625 c 0
 516.840820312 508.271484375 472.762695312 494.377929688 439.185546875 466.905273438 c 0
 405.606445312 439.430664062 385.3515625 400.575195312 383.405273438 359.065429688 c 0
 383.15625 353.750976562 387.389648438 349.099609375 392.705078125 348.850585938 c 0
 398.01953125 348.6015625 402.669921875 352.8359375 402.919921875 358.150390625 c 0
 404.592773438 393.82421875 421.97265625 427.580078125 451.556640625 451.78515625 c 0
 481.14453125 475.993164062 520.447265625 488.499023438 560.495117188 486.21875 c 0
 565.806640625 485.916015625 570.5 490.103515625 570.802734375 495.415039062 c 0
393.649414062 368.364257812 m 0
 388.334960938 368.62890625 383.671875 364.409179688 383.40625 359.094726562 c 0
 379.798828125 286.797851562 435.66015625 224.400390625 512.19921875 212.12109375 c 0
 588.676757812 199.8515625 664.08203125 240.899414062 687.8046875 309.633789062 c 0
 689.541015625 314.663085938 686.788085938 320.318359375 681.7578125 322.053710938 c 0
 676.728515625 323.790039062 671.07421875 321.037109375 669.337890625 316.0078125 c 0
 649.1015625 257.375976562 583.419921875 220.48046875 515.293945312 231.41015625 c 0
 447.233398438 242.329101562 399.872070312 297.06640625 402.91796875 358.12109375 c 0
 403.18359375 363.435546875 398.962890625 368.098632812 393.649414062 368.364257812 c 0
307.08203125 618.071289062 m 0
 307.08203125 612.75 311.529296875 608.302734375 316.849609375 608.302734375 c 2
 531.135742188 608.302734375 l 2
 536.456054688 608.302734375 540.903320312 612.75 540.903320312 618.071289062 c 0
 540.903320312 623.391601562 536.456054688 627.838867188 531.135742188 627.838867188 c 2
 316.849609375 627.838867188 l 2
 311.529296875 627.838867188 307.08203125 623.391601562 307.08203125 618.071289062 c 0
521.3671875 618.071289062 m 0
 521.3671875 612.75 525.814453125 608.302734375 531.135742188 608.302734375 c 2
 683.150390625 608.302734375 l 2
 688.470703125 608.302734375 692.91796875 612.75 692.91796875 618.071289062 c 0
 692.91796875 623.391601562 688.470703125 627.838867188 683.150390625 627.838867188 c 2
 531.135742188 627.838867188 l 2
 525.814453125 627.838867188 521.3671875 623.391601562 521.3671875 618.071289062 c 0
EndSplineSet
EndChar
StartChar: uni0920
Encoding: 2336 2336 11
Width: 1000
VWidth: 0
Flags: H
LayerCount: 2
Fore
SplineSet
352.869140625 357.08203125 m 0
 352.869140625 282.532226562 419.625 223.6875 500 223.6875 c 0
 580.372070312 223.6875 647.130859375 282.536132812 647.130859375 357.08203125 c 0
 647.130859375 431.630859375 580.375 490.4765625 500 490.4765625 c 0
 419.627929688 490.4765625 352.869140625 431.627929688 352.869140625 357.08203125 c 0
372.405273438 357.08203125 m 0
 372.405273438 419.08984375 428.646484375 470.940429688 500 470.940429688 c 0
 571.3515625 470.940429688 627.594726562 419.086914062 627.594726562 357.08203125 c 0
 627.594726562 295.073242188 571.353515625 243.223632812 500 243.223632812 c 0
 428.6484375 243.223632812 372.405273438 295.077148438 372.405273438 357.08203125 c 0
500 627.838867188 m 0
 494.6796875 627.838867188 490.232421875 623.391601562 490.232421875 618.071289062 c 2
 490.232421875 480.708007812 l 2
 490.232421875 475.387695312 494.6796875 470.940429688 500 470.940429688 c 0
 505.3203125 470.940429688 509.767578125 475.387695312 509.767578125 480.708007812 c 2
 509.767578125 618.071289062 l 2
 509.767578125 623.391601562 505.3203125 627.838867188 500 627.838867188 c 0
329.975585938 618.071289062 m 0
 329.975585938 612.75 334.422851562 608.302734375 339.743164062 608.302734375 c 2
 660.256835938 608.302734375 l 2
 665.577148438 608.302734375 670.024414062 612.75 670.024414062 618.071289062 c 0
 670.024414062 623.391601562 665.577148438 627.838867188 660.256835938 627.838867188 c 2
 339.743164062 627.838867188 l 2
 334.422851562 627.838867188 329.975585938 623.391601562 329.975585938 618.071289062 c 0
EndSplineSet
EndChar
StartChar: uni0921
Encoding: 2337 2337 12
Width: 1000
VWidth: 0
Flags: H
LayerCount: 2
Fore
SplineSet
591.575195312 627.838867188 m 0
 586.25390625 627.838867188 581.806640625 623.391601562 581.806640625 618.071289062 c 2
 581.806640625 557.020507812 l 2
 581.806640625 551.700195312 586.25390625 547.252929688 591.575195312 547.252929688 c 0
 596.895507812 547.252929688 601.342773438 551.700195312 601.342773438 557.020507812 c 2
 601.342773438 618.071289062 l 2
 601.342773438 623.391601562 596.895507812 627.838867188 591.575195312 627.838867188 c 0
601.342773438 557.020507812 m 0
 601.342773438 562.341796875 596.895507812 566.7890625 591.575195312 566.7890625 c 2
 438.950195312 566.7890625 l 2
 433.62890625 566.7890625 429.181640625 562.341796875 429.181640625 557.020507812 c 0
 429.181640625 551.700195312 433.62890625 547.252929688 438.950195312 547.252929688 c 2
 591.575195312 547.252929688 l 2
 596.895507812 547.252929688 601.342773438 551.700195312 601.342773438 557.020507812 c 0
448.717773438 557.020507812 m 0
 448.717773438 562.341796875 444.270507812 566.7890625 438.950195312 566.7890625 c 0
 399.83984375 566.7890625 368.131835938 535.081054688 368.131835938 495.970703125 c 0
 368.131835938 456.860351562 399.83984375 425.15234375 438.950195312 425.15234375 c 0
 444.270507812 425.15234375 448.717773438 429.599609375 448.717773438 434.920898438 c 0
 448.717773438 440.241210938 444.270507812 444.688476562 438.950195312 444.688476562 c 0
 410.625976562 444.688476562 387.66796875 467.646484375 387.66796875 495.970703125 c 0
 387.66796875 524.293945312 410.625976562 547.252929688 438.950195312 547.252929688 c 0
 444.270507812 547.252929688 448.717773438 551.700195312 448.717773438 557.020507812 c 0
429.181640625 434.920898438 m 0
 429.181640625 429.599609375 433.62890625 425.15234375 438.950195312 425.15234375 c 2
 545.787109375 425.15234375 l 2
 551.108398438 425.15234375 555.555664062 429.599609375 555.555664062 434.920898438 c 0
 555.555664062 440.241210938 551.108398438 444.688476562 545.787109375 444.688476562 c 2
 438.950195312 444.688476562 l 2
 433.62890625 444.688476562 429.181640625 440.241210938 429.181640625 434.920898438 c 0
536.01953125 434.920898438 m 0
 536.01953125 429.599609375 540.466796875 425.15234375 545.787109375 425.15234375 c 0
 590.970703125 425.15234375 627.594726562 388.52734375 627.594726562 343.345703125 c 0
 627.594726562 298.163085938 590.970703125 261.538085938 545.787109375 261.538085938 c 0
 540.466796875 261.538085938 536.01953125 257.090820312 536.01953125 251.770507812 c 0
 536.01953125 246.44921875 540.466796875 242.002929688 545.787109375 242.002929688 c 0
 601.756835938 242.002929688 647.130859375 287.375976562 647.130859375 343.345703125 c 0
 647.130859375 399.313476562 601.756835938 444.688476562 545.787109375 444.688476562 c 0
 540.466796875 444.688476562 536.01953125 440.241210938 536.01953125 434.920898438 c 0
555.555664062 251.770507812 m 0
 555.555664062 257.090820312 551.108398438 261.538085938 545.787109375 261.538085938 c 2
 393.162109375 261.538085938 l 2
 387.841796875 261.538085938 383.39453125 257.090820312 383.39453125 251.770507812 c 0
 383.39453125 246.44921875 387.841796875 242.002929688 393.162109375 242.002929688 c 2
 545.787109375 242.002929688 l 2
 551.108398438 242.002929688 555.555664062 246.44921875 555.555664062 251.770507812 c 0
329.975585938 618.071289062 m 0
 329.975585938 612.75 334.422851562 608.302734375 339.743164062 608.302734375 c 2
 660.256835938 608.302734375 l 2
 665.577148438 608.302734375 670.024414062 612.75 670.024414062 618.071289062 c 0
 670.024414062 623.391601562 665.577148438 627.838867188 660.256835938 627.838867188 c 2
 339.743164062 627.838867188 l 2
 334.422851562 627.838867188 329.975585938 623.391601562 329.975585938 618.071289062 c 0
EndSplineSet
EndChar
StartChar: uni0922
Encoding: 2338 2338 13
GlifName: uni0922
Width: 41
VWidth: 0
Flags: HW
LayerCount: 3
Fore
SplineSet
6.599609375 17 m 4
 6.599609375 25.5163640513 14.8849732868 31.3352144881 23.6669921875 31.400390625 c 6
 25.2666015625 31.400390625 l 5
 25.2666015625 39.93359375 l 5
 3 39.93359375 l 5
 3 42.06640625 l 5
 39 42.06640625 l 5
 39 39.93359375 l 5
 27.400390625 39.93359375 l 5
 27.400390625 30.3330078125 l 5
 26.3330078125 30.3330078125 l 5
 26.3330078125 29.2666015625 l 5
 23.6669921875 29.2666015625 l 6
 23.6210204928 29.2669728152 23.5750590752 29.2671581299 23.5291094891 29.2671581299 c 0
 15.971205822 29.2671581299 8.7333984375 24.25356127 8.7333984375 17 c 4
 8.7333984375 11.4865505235 12.1826090761 7.37604834116 16.3056640625 5.6669921875 c 4
 17.8374760948 5.03294077103 19.4360172671 4.7442407724 20.994946179 4.7442407724 c 0
 22.6854133627 4.7442407724 24.3293015111 5.08371565557 25.791015625 5.6904296875 c 5
 23.9969839447 6.3865446904 22.533203125 8.15595095708 22.533203125 10.400390625 c 4
 22.533203125 13.1790829385 24.8197705904 15.466796875 27.599609375 15.466796875 c 4
 30.3785709212 15.466796875 32.666015625 13.1802294096 32.666015625 10.400390625 c 4
 32.666015625 9.078125 32.041015625 7.67578125 31.111328125 6.748046875 c 4
 28.6092578807 4.32307460646 25.0094486031 2.57589834868 20.9987396822 2.57589834868 c 0
 19.2229269219 2.57589834868 17.3665600297 2.91842058921 15.4892578125 3.6962890625 c 4
 10.6678047907 5.69407943779 6.599609375 10.5531876222 6.599609375 17 c 4
24.666015625 10.400390625 m 4
 24.666015625 8.76061036667 25.9612424402 7.466796875 27.599609375 7.466796875 c 4
 29.2393896333 7.466796875 30.533203125 8.76175144539 30.533203125 10.400390625 c 4
 30.533203125 12.0399016506 29.2382485546 13.333984375 27.599609375 13.333984375 c 4
 25.9600983494 13.333984375 24.666015625 12.0387575598 24.666015625 10.400390625 c 4
EndSplineSet
Validated: 1
EndChar
StartChar: uni0923
Encoding: 2339 2339 14
GlifName: uni0923
Width: 1000
VWidth: 0
Flags: H
LayerCount: 2
Fore
SplineSet
622.100585938 627.838867188 m 0
 616.779296875 627.838867188 612.33203125 623.391601562 612.33203125 618.071289062 c 2
 612.33203125 251.770507812 l 2
 612.33203125 246.44921875 616.779296875 242.002929688 622.100585938 242.002929688 c 0
 627.420898438 242.002929688 631.868164062 246.44921875 631.868164062 251.770507812 c 2
 631.868164062 618.071289062 l 2
 631.868164062 623.391601562 627.420898438 627.838867188 622.100585938 627.838867188 c 0
362.637695312 479.375976562 m 0
 357.31640625 479.375976562 352.869140625 474.928710938 352.869140625 469.608398438 c 0
 352.869140625 419.579101562 390.810546875 377.94921875 438.950195312 377.94921875 c 0
 487.078125 377.94921875 525.030273438 419.587890625 525.030273438 469.608398438 c 0
 525.030273438 474.928710938 520.583007812 479.375976562 515.262695312 479.375976562 c 0
 509.94140625 479.375976562 505.494140625 474.928710938 505.494140625 469.608398438 c 0
 505.494140625 429.176757812 475.116210938 397.485351562 438.950195312 397.485351562 c 0
 402.797851562 397.485351562 372.405273438 429.185546875 372.405273438 469.608398438 c 0
 372.405273438 474.928710938 367.958007812 479.375976562 362.637695312 479.375976562 c 0
362.637695312 618.666992188 m 0
 357.31640625 618.666992188 352.869140625 614.219726562 352.869140625 608.8984375 c 2
 352.869140625 469.608398438 l 2
 352.869140625 464.287109375 357.31640625 459.83984375 362.637695312 459.83984375 c 0
 367.958007812 459.83984375 372.405273438 464.287109375 372.405273438 469.608398438 c 2
 372.405273438 608.8984375 l 2
 372.405273438 614.219726562 367.958007812 618.666992188 362.637695312 618.666992188 c 0
515.262695312 618.666992188 m 0
 509.94140625 618.666992188 505.494140625 614.219726562 505.494140625 608.8984375 c 2
 505.494140625 469.608398438 l 2
 505.494140625 464.287109375 509.94140625 459.83984375 515.262695312 459.83984375 c 0
 520.583007812 459.83984375 525.030273438 464.287109375 525.030273438 469.608398438 c 2
 525.030273438 608.8984375 l 2
 525.030273438 614.219726562 520.583007812 618.666992188 515.262695312 618.666992188 c 0
284.188476562 619.486328125 m 0
 284.188476562 614.165039062 288.635742188 609.717773438 293.956054688 609.717773438 c 2
 706.043945312 609.717773438 l 2
 711.364257812 609.717773438 715.811523438 614.165039062 715.811523438 619.486328125 c 0
 715.811523438 624.806640625 711.364257812 629.25390625 706.043945312 629.25390625 c 2
 293.956054688 629.25390625 l 2
 288.635742188 629.25390625 284.188476562 624.806640625 284.188476562 619.486328125 c 0
EndSplineSet
Validated: 524293
EndChar
StartChar: uni0924
Encoding: 2340 2340 15
Width: 1000
VWidth: 0
Flags: H
LayerCount: 2
Fore
SplineSet
591.575195312 627.838867188 m 0
 586.25390625 627.838867188 581.806640625 623.391601562 581.806640625 618.071289062 c 2
 581.806640625 251.770507812 l 2
 581.806640625 246.44921875 586.25390625 242.002929688 591.575195312 242.002929688 c 0
 596.895507812 242.002929688 601.342773438 246.44921875 601.342773438 251.770507812 c 2
 601.342773438 618.071289062 l 2
 601.342773438 623.391601562 596.895507812 627.838867188 591.575195312 627.838867188 c 0
600.533203125 461.55078125 m 0
 602.654296875 466.430664062 600.349609375 472.282226562 595.469726562 474.403320312 c 0
 544.311523438 496.646484375 486.213867188 496.646484375 435.055664062 474.403320312 c 0
 430.17578125 472.282226562 427.870117188 466.430664062 429.9921875 461.55078125 c 0
 432.11328125 456.671875 437.96484375 454.366210938 442.844726562 456.487304688 c 0
 489.03515625 476.5703125 541.490234375 476.5703125 587.680664062 456.487304688 c 0
 592.559570312 454.366210938 598.411132812 456.671875 600.533203125 461.55078125 c 0
447.666015625 469.85546875 m 0
 445.264648438 474.602539062 439.288085938 476.563476562 434.541015625 474.162109375 c 0
 398.903320312 456.133789062 380.423828125 417.590820312 383.6953125 373.254882812 c 0
 386.963867188 328.9609375 411.015625 283.741210938 447.748046875 251.315429688 c 0
 451.737304688 247.793945312 458.013671875 248.185546875 461.53515625 252.173828125 c 0
 465.056640625 256.163085938 464.666015625 262.440429688 460.676757812 265.961914062 c 0
 427.409179688 295.329101562 406.006835938 336.368164062 403.177734375 374.693359375 c 0
 400.353515625 412.978515625 415.912109375 442.844726562 443.359375 456.729492188 c 0
 448.107421875 459.130859375 450.068359375 465.107421875 447.666015625 469.85546875 c 0
307.08203125 618.071289062 m 0
 307.08203125 612.75 311.529296875 608.302734375 316.849609375 608.302734375 c 2
 683.150390625 608.302734375 l 2
 688.470703125 608.302734375 692.91796875 612.75 692.91796875 618.071289062 c 0
 692.91796875 623.391601562 688.470703125 627.838867188 683.150390625 627.838867188 c 2
 316.849609375 627.838867188 l 2
 311.529296875 627.838867188 307.08203125 623.391601562 307.08203125 618.071289062 c 0
EndSplineSet
EndChar
StartChar: uni0925
Encoding: 2341 2341 16
Width: 1000
VWidth: 0
Flags: H
LayerCount: 2
Fore
SplineSet
637.362304688 627.838867188 m 0
 632.041992188 627.838867188 627.594726562 623.391601562 627.594726562 618.071289062 c 2
 627.594726562 251.770507812 l 2
 627.594726562 246.44921875 632.041992188 242.002929688 637.362304688 242.002929688 c 0
 642.68359375 242.002929688 647.130859375 246.44921875 647.130859375 251.770507812 c 2
 647.130859375 618.071289062 l 2
 647.130859375 623.391601562 642.68359375 627.838867188 637.362304688 627.838867188 c 0
394.758789062 571.907226562 m 0
 394.758789062 552.014648438 378.634765625 535.887695312 358.739257812 535.887695312 c 0
 338.84765625 535.887695312 322.719726562 552.012695312 322.719726562 571.907226562 c 0
 322.719726562 591.80078125 338.845703125 607.926757812 358.739257812 607.926757812 c 0
 378.6328125 607.926757812 394.758789062 591.802734375 394.758789062 571.907226562 c 0
414.294921875 571.907226562 m 0
 414.294921875 602.588867188 389.422851562 627.462890625 358.739257812 627.462890625 c 0
 328.059570312 627.462890625 303.18359375 602.590820312 303.18359375 571.907226562 c 0
 303.18359375 541.2265625 328.057617188 516.352539062 358.739257812 516.352539062 c 0
 389.420898438 516.352539062 414.294921875 541.224609375 414.294921875 571.907226562 c 0
513.125976562 618.071289062 m 0
 513.125976562 612.75 517.573242188 608.302734375 522.893554688 608.302734375 c 2
 706.043945312 608.302734375 l 2
 711.364257812 608.302734375 715.811523438 612.75 715.811523438 618.071289062 c 0
 715.811523438 623.391601562 711.364257812 627.838867188 706.043945312 627.838867188 c 2
 522.893554688 627.838867188 l 2
 517.573242188 627.838867188 513.125976562 623.391601562 513.125976562 618.071289062 c 0
353.051757812 619.951171875 m 0
 352.02734375 614.73046875 355.53515625 609.509765625 360.756835938 608.485351562 c 0
 391.485351562 602.456054688 416.385742188 579.974609375 425.510742188 550.018554688 c 0
 434.63671875 520.063476562 426.5 487.516601562 404.3515625 465.37890625 c 0
 382.202148438 443.2421875 349.65234375 435.123046875 319.701171875 444.263671875 c 0
 314.612304688 445.81640625 309.060546875 442.860351562 307.506835938 437.771484375 c 0
 305.954101562 432.682617188 308.909179688 427.130859375 313.999023438 425.578125 c 0
 350.853515625 414.331054688 390.90625 424.322265625 418.162109375 451.561523438 c 0
 445.416015625 478.802734375 455.427734375 518.8515625 444.19921875 555.711914062 c 0
 432.970703125 592.572265625 402.330078125 620.237304688 364.517578125 627.65625 c 0
 359.296875 628.680664062 354.076171875 625.172851562 353.051757812 619.951171875 c 0
314.318359375 444.354492188 m 0
 309.1796875 442.9765625 306.037109375 437.528320312 307.415039062 432.389648438 c 0
 325.997070312 363.1328125 379.551757812 308.705078125 448.498046875 289.004882812 c 0
 517.444335938 269.305664062 591.671875 287.225585938 644.036132812 336.211914062 c 0
 647.920898438 339.84765625 648.130859375 346.1328125 644.49609375 350.018554688 c 0
 640.861328125 353.904296875 634.575195312 354.11328125 630.689453125 350.478515625 c 0
 583.336914062 306.180664062 516.213867188 289.974609375 453.865234375 307.790039062 c 0
 391.517578125 325.604492188 343.087890625 374.823242188 326.284179688 437.452148438 c 0
 324.905273438 442.590820312 319.458007812 445.733398438 314.318359375 444.354492188 c 0
637.362304688 333.577148438 m 0
 642.68359375 333.577148438 647.130859375 338.024414062 647.130859375 343.345703125 c 2
 647.130859375 434.920898438 l 2
 647.130859375 440.241210938 642.68359375 444.688476562 637.362304688 444.688476562 c 0
 632.041992188 444.688476562 627.594726562 440.241210938 627.594726562 434.920898438 c 2
 627.594726562 343.345703125 l 2
 627.594726562 338.024414062 632.041992188 333.577148438 637.362304688 333.577148438 c 0
314.318359375 444.354492188 m 0
 309.1796875 442.9765625 306.037109375 437.528320312 307.415039062 432.389648438 c 0
 325.997070312 363.1328125 379.551757812 308.705078125 448.498046875 289.004882812 c 0
 517.444335938 269.305664062 591.671875 287.225585938 644.036132812 336.211914062 c 0
 647.920898438 339.84765625 648.130859375 346.1328125 644.49609375 350.018554688 c 0
 640.861328125 353.904296875 634.575195312 354.11328125 630.689453125 350.478515625 c 0
 583.336914062 306.180664062 516.213867188 289.974609375 453.865234375 307.790039062 c 0
 391.517578125 325.604492188 343.087890625 374.823242188 326.284179688 437.452148438 c 0
 324.905273438 442.590820312 319.458007812 445.733398438 314.318359375 444.354492188 c 0
637.362304688 333.577148438 m 0
 642.68359375 333.577148438 647.130859375 338.024414062 647.130859375 343.345703125 c 2
 647.130859375 434.920898438 l 2
 647.130859375 440.241210938 642.68359375 444.688476562 637.362304688 444.688476562 c 0
 632.041992188 444.688476562 627.594726562 440.241210938 627.594726562 434.920898438 c 2
 627.594726562 343.345703125 l 2
 627.594726562 338.024414062 632.041992188 333.577148438 637.362304688 333.577148438 c 0
637.362304688 333.577148438 m 0
 642.68359375 333.577148438 647.130859375 338.024414062 647.130859375 343.345703125 c 2
 647.130859375 434.920898438 l 2
 647.130859375 440.241210938 642.68359375 444.688476562 637.362304688 444.688476562 c 0
 632.041992188 444.688476562 627.594726562 440.241210938 627.594726562 434.920898438 c 2
 627.594726562 343.345703125 l 2
 627.594726562 338.024414062 632.041992188 333.577148438 637.362304688 333.577148438 c 0
353.051757812 619.951171875 m 0
 352.02734375 614.73046875 355.53515625 609.509765625 360.756835938 608.485351562 c 0
 391.485351562 602.456054688 416.385742188 579.974609375 425.510742188 550.018554688 c 0
 434.63671875 520.063476562 426.5 487.516601562 404.3515625 465.37890625 c 0
 382.202148438 443.2421875 349.65234375 435.123046875 319.701171875 444.263671875 c 0
 314.331054688 445.90234375 308.524414062 442.512695312 307.3125 437.030273438 c 0
 306.971679688 435.490234375 307.303710938 432.805664062 307.415039062 432.389648438 c 0
 325.997070312 363.1328125 379.551757812 308.705078125 448.498046875 289.004882812 c 0
 517.444335938 269.305664062 591.671875 287.225585938 644.036132812 336.211914062 c 0
 646.037109375 338.084960938 647.130859375 340.978515625 647.130859375 343.345703125 c 2
 647.130859375 434.920898438 l 2
 647.130859375 440.241210938 642.68359375 444.688476562 637.362304688 444.688476562 c 0
 632.041992188 444.688476562 627.594726562 440.241210938 627.594726562 434.920898438 c 2
 627.594726562 347.6484375 l 1
 581.256835938 306.34765625 515.262695312 290.24609375 453.865234375 307.790039062 c 0
 396.821289062 324.088867188 351.647460938 366.28125 331.208984375 421.875976562 c 1
 361.939453125 418.05078125 394.745117188 428.158203125 418.162109375 451.561523438 c 0
 445.416015625 478.802734375 455.427734375 518.8515625 444.19921875 555.711914062 c 0
 432.970703125 592.572265625 402.330078125 620.237304688 364.517578125 627.65625 c 0
 359.296875 628.680664062 354.076171875 625.172851562 353.051757812 619.951171875 c 0
EndSplineSet
EndChar
StartChar: uni0926
Encoding: 2342 2342 17
GlifName: uni0926
Width: 37
VWidth: 0
Flags: HW
LayerCount: 3
Fore
SplineSet
4.599609375 21 m 5
 4.7245463583 29.7622470955 12.633558469 35.9956532763 21.6669921875 36.06640625 c 6
 23.2666015625 36.06640625 l 5
 23.2666015625 41.93359375 l 5
 1 41.93359375 l 5
 1 44.06640625 l 5
 37 44.06640625 l 5
 37 41.93359375 l 5
 25.400390625 41.93359375 l 5
 25.400390625 35 l 5
 24.3330078125 35 l 5
 24.3330078125 33.93359375 l 5
 21.6669921875 33.93359375 l 6
 21.6213228259 33.9339844474 21.5756586307 33.9341794555 21.5300012067 33.9341794555 c 0
 14.0190025239 33.9341794555 6.69125099061 28.6567180784 6.69125099061 21.1352469113 c 0
 6.69125099061 19.9435787288 6.8751908426 18.6955818312 7.271484375 17.4033203125 c 4
 8.65811385618 12.8817024391 13.0147185133 8.70463806141 18.8380427709 8.70463806141 c 0
 19.9237217886 8.70463806141 21.0603817697 8.84982652552 22.23828125 9.1650390625 c 5
 22.0390625 9.5087890625 21.8544921875 9.8525390625 21.6875 10.1904296875 c 4
 20.8441900788 11.9067435413 20.6456031521 13.6661299553 20.6456031521 14.3279714163 c 0
 20.6456031521 14.3538060896 20.6459057379 14.3779684392 20.646484375 14.400390625 c 6
 20.533203125 14.400390625 l 5
 20.5635892808 15.4942922341 21.1120375405 17.599639382 21.71484375 17.65234375 c 4
 22.5615495968 18.6458468953 24.0143227905 19.4629171571 25.64458168 19.4629171571 c 0
 26.2585335887 19.4629171571 26.8976575663 19.3470354304 27.5390625 19.0810546875 c 4
 29.2240231228 18.3833484255 30.6564443331 16.4642234875 30.6564443331 14.3218898688 c 0
 30.6564443331 13.6197590009 30.5025818738 12.8936523386 30.1533203125 12.1787109375 c 4
 29.92578125 11.7119140625 29.38671875 11.1044921875 29.38671875 11.1044921875 c 6
 29.3852925045 11.1020286725 29.381895159 11.1008390562 29.3766575655 11.1008390562 c 0
 29.3029982075 11.1008390562 28.8653662913 11.3361267369 28.427734375 11.572265625 c 6
 29.1826171875 10.8173828125 l 5
 28.095703125 9.75 26.833984375 8.8525390625 25.486328125 8.166015625 c 5
 27.3369223976 5.79612193922 30.0490443655 3.46321516115 32.1270743244 3.46321516115 c 0
 32.1739112377 3.46321516115 32.2204260254 3.46440030293 32.2666015625 3.466796875 c 5
 32.2666015625 1.333984375 l 5
 29.2426493485 1.45240980098 25.549102736 4.47430759251 23.45703125 7.314453125 c 4
 22.0889402649 6.85842279664 20.5746703445 6.61963514246 19.0272154654 6.61963514246 c 0
 17.1635698235 6.61963514246 15.2517923966 6.96597506539 13.4892578125 7.6962890625 c 4
 10.849609375 8.7900390625 8.5439453125 10.728515625 7.0263671875 13 c 4
 5.509765625 15.2705078125 4.779296875 20.4072265625 4.779296875 20.4072265625 c 6
 4.77827089 20.4093677486 4.77776603005 20.4116199857 4.77776603005 20.4139793764 c 0
 4.77776603005 20.5149238873 5.70190358353 20.8120110798 6.2763671875 21 c 6
 4.599609375 21 l 5
27.685546875 12.314453125 m 4
 28.1578489554 12.9282060823 28.5295292324 13.6703128661 28.5295292324 14.4765045726 c 0
 28.5295292324 14.923985306 28.415019725 15.39120971 28.1396484375 15.8671875 c 4
 27.6828304836 16.658923199 26.7896445868 17.3430105964 25.6457556593 17.3430105964 c 0
 25.3893438394 17.3430105964 25.1203349956 17.3086373968 24.8408203125 17.2333984375 c 4
 23.7040114708 16.9294049868 22.6634910567 15.8852258604 22.6634910567 14.5173633436 c 0
 22.6634910567 14.4786288411 22.6643254325 14.4396347823 22.65625 14.400390625 c 4
 22.86531521 12.5597077977 23.4712184627 11.2275738099 24.27734375 9.9052734375 c 5
 25.513671875 10.484375 26.650390625 11.283203125 27.685546875 12.314453125 c 4
EndSplineSet
Validated: 1
EndChar
StartChar: uni0927
Encoding: 2343 2343 18
GlifName: uni0927
Width: 34
VWidth: 0
Flags: HW
LayerCount: 3
Fore
SplineSet
7.9658203125 20.140625 m 5
 4.98130238615 20.8989290885 2.570083314 23.435486135 2.570083314 27.0455287623 c 0
 2.570083314 29.4452783582 3.80747185998 31.5729840205 5.275390625 32.7490234375 c 4
 5.6904296875 33.08203125 6.3828125 33.4189453125 6.8486328125 33.626953125 c 4
 7.42578125 33.9619140625 8.126953125 34.1826171875 8.7763671875 34.1826171875 c 4
 10.8176120513 34.1826171875 12.509765625 32.4915996845 12.509765625 30.44921875 c 4
 12.509765625 28.4069326597 10.8197819329 26.7158203125 8.7763671875 26.7158203125 c 4
 7.01892592703 26.7158203125 5.6923198063 27.9037533924 5.2236328125 29.3642578125 c 5
 4.83556481625 28.6023890257 4.66069887893 27.8235629916 4.66069887893 27.0710334108 c 0
 4.66069887893 24.356500504 6.93604929292 21.9841362706 9.68737058033 21.9841362706 c 0
 9.95938263706 21.9841362706 10.2360470619 22.0073248989 10.515625 22.0556640625 c 6
 10.6875 20.8564453125 l 6
 11.0176315535 20.510958803 11.3241856397 20.1862204647 11.3564453125 20.1865234375 c 5
 10.9274573033 19.9005314313 9.88186933638 19.1346359428 9.474609375 18.6259765625 c 4
 8.60208118191 17.5344259862 8.22057864126 16.306890208 8.22057864126 15.1056675264 c 0
 8.22057864126 12.0266496423 10.7271196216 9.12051358244 13.8957305584 9.12051358244 c 0
 14.6871740296 9.12051358244 15.5199228073 9.30182197654 16.365234375 9.70703125 c 6
 17.2353515625 7.759765625 l 5
 16.0911800229 7.27760440227 14.9825681481 7.06528417199 13.9376941908 7.06528417199 c 0
 10.707596769 7.06528417199 8.08661716414 9.09434379672 6.9072265625 11.453125 c 4
 6.33998984103 12.586994357 6.09329237984 13.7927795852 6.09329237984 14.9598676529 c 0
 6.09329237984 17.003334296 6.84958964165 18.9281675472 7.9658203125 20.140625 c 5
11.3564453125 20.1865234375 m 5
 11.3564453125 20.1865234375 11.3564453125 20.1865234375 11.3564453125 20.1865234375 c 5
16.3876953125 9.716796875 m 6
 17.0068695445 9.94898721202 18.6558407402 10.5760448079 19.349609375 10.953125 c 4
 22.0225888187 12.4031170337 24.1954752982 14.5819549174 25.599609375 17.2578125 c 5
 25.599609375 31.93359375 l 5
 16 31.93359375 l 5
 16 34.06640625 l 5
 34 34.06640625 l 5
 34 31.93359375 l 5
 27.7333984375 31.93359375 l 5
 27.7333984375 1 l 5
 25.599609375 1 l 5
 25.599609375 13.435546875 l 6
 24.888671875 12.5576171875 24.1005859375 11.7509765625 23.2587890625 11.0458984375 c 4
 21.5009765625 9.572265625 17.4853515625 7.916015625 17.480562087 7.91461493975 c 0
 17.3668335293 7.91461493975 16.3876953125 9.716796875 16.3876953125 9.716796875 c 6
7.1767578125 30.44921875 m 4
 7.1767578125 29.5460879279 7.87350396936 28.8486328125 8.7763671875 28.8486328125 c 4
 9.6803476904 28.8486328125 10.3759765625 29.5461947943 10.3759765625 30.44921875 c 4
 10.3759765625 31.3537358072 9.6786961295 32.048828125 8.7763671875 32.048828125 c 4
 7.83471123498 32.048828125 7.1767578125 31.336730848 7.1767578125 30.44921875 c 4
EndSplineSet
Validated: 1
EndChar
StartChar: uni092A
Encoding: 2346 2346 20
Width: 1000
VWidth: 0
Flags: H
LayerCount: 2
Fore
SplineSet
568.681640625 582.051757812 m 0
 563.360351562 582.051757812 558.913085938 577.604492188 558.913085938 572.283203125 c 2
 558.913085938 205.982421875 l 2
 558.913085938 200.662109375 563.360351562 196.21484375 568.681640625 196.21484375 c 0
 574.001953125 196.21484375 578.44921875 200.662109375 578.44921875 205.982421875 c 2
 578.44921875 572.283203125 l 2
 578.44921875 577.604492188 574.001953125 582.051757812 568.681640625 582.051757812 c 0
569.715820312 582.051757812 m 0
 564.395507812 582.0703125 559.932617188 577.638671875 559.9140625 572.317382812 c 2
 559.381835938 419.693359375 l 2
 559.36328125 414.373046875 563.794921875 409.91015625 569.115234375 409.891601562 c 0
 574.435546875 409.873046875 578.8984375 414.3046875 578.916992188 419.625 c 2
 579.450195312 572.25 l 2
 579.46875 577.5703125 575.037109375 582.033203125 569.715820312 582.051757812 c 0
417.091796875 582.583984375 m 0
 411.771484375 582.602539062 407.30859375 578.170898438 407.290039062 572.850585938 c 2
 406.756835938 420.225585938 l 2
 406.73828125 414.904296875 411.169921875 410.44140625 416.491210938 410.422851562 c 0
 421.811523438 410.404296875 426.274414062 414.8359375 426.29296875 420.157226562 c 2
 426.826171875 572.782226562 l 2
 426.844726562 578.103515625 422.413085938 582.565429688 417.091796875 582.583984375 c 0
569.18359375 429.427734375 m 0
 563.862304688 429.446289062 559.400390625 425.014648438 559.381835938 419.693359375 c 0
 559.252929688 382.939453125 529.35546875 353.251953125 492.60546875 353.381835938 c 0
 455.852539062 353.509765625 426.165039062 383.408203125 426.29296875 420.157226562 c 0
 426.311523438 425.477539062 421.879882812 429.940429688 416.559570312 429.958984375 c 0
 411.23828125 429.977539062 406.775390625 425.545898438 406.756835938 420.225585938 c 0
 406.590820312 372.684570312 444.998046875 334.01171875 492.537109375 333.845703125 c 0
 540.078125 333.678710938 578.750976562 372.084960938 578.916992188 419.625 c 0
 578.935546875 424.946289062 574.50390625 429.409179688 569.18359375 429.427734375 c 0
579.450195312 572.25 m 0
 579.46875 577.5703125 575.037109375 582.033203125 569.715820312 582.051757812 c 2
 417.091796875 582.583984375 l 2
 411.771484375 582.602539062 407.30859375 578.170898438 407.290039062 572.850585938 c 0
 407.271484375 567.530273438 411.703125 563.067382812 417.0234375 563.048828125 c 2
 569.6484375 562.515625 l 2
 574.96875 562.497070312 579.431640625 566.928710938 579.450195312 572.25 c 0
323.473632812 572.283203125 m 0
 323.473632812 566.961914062 327.920898438 562.514648438 333.241210938 562.514648438 c 2
 653.75390625 562.515625 l 2
 659.07421875 562.515625 663.521484375 566.962890625 663.521484375 572.283203125 c 0
 663.521484375 577.604492188 659.07421875 582.051757812 653.75390625 582.051757812 c 2
 333.241210938 582.05078125 l 2
 327.920898438 582.05078125 323.473632812 577.603515625 323.473632812 572.283203125 c 0
EndSplineSet
EndChar
StartChar: uni092B
Encoding: 2347 2347 21
GlifName: uni092B_
Width: 41
VWidth: 0
Flags: HW
LayerCount: 3
Fore
SplineSet
29 22.93359375 m 4
 25.2966845945 22.93359375 22.1536615507 19.9813124196 22.06640625 16.341796875 c 6
 22.06640625 2 l 5
 19.93359375 2 l 5
 19.68359375 14.2958984375 l 5
 18.25 12.703125 16.025390625 11.599609375 13.7998046875 11.599609375 c 4
 10.1969685932 11.599609375 7.29536801362 14.2149591884 6.1689453125 17.1728515625 c 4
 5.63954090059 18.5633511112 5.60712016172 20.2676348641 5.533203125 20.6669921875 c 6
 5.533203125 32.93359375 l 5
 1 32.93359375 l 5
 1 35.06640625 l 5
 41 35.06640625 l 5
 41 32.93359375 l 5
 22.06640625 32.93359375 l 5
 22.06640625 21.8349609375 l 5
 23.6001167002 23.6915577982 26.2657738499 25.06640625 29 25.06640625 c 4
 32.8716012449 25.06640625 36.0736834222 22.5576717583 37.353515625 19.529296875 c 4
 37.9525685576 18.1139520342 37.9791608729 16.4311544798 38.06640625 16 c 4
 37.9670183665 11.457825382 34.3743908063 6.91797829036 29.1216053446 6.91797829036 c 0
 28.5486002234 6.91797829036 27.9558396454 6.97200131623 27.345703125 7.0859375 c 4
 26.625 7.21875 25.4248046875 7.701171875 25.4248046875 7.701171875 c 6
 25.4209866451 7.70209746104 25.4191972908 7.71016457765 25.4191972908 7.72453017686 c 0
 25.4191972908 7.93933593378 25.8192716124 9.56239336267 25.8192716124 9.77519753091 c 0
 25.8192716124 9.7884104028 25.8177292911 9.79618662562 25.814453125 9.7978515625 c 5
 25.8486328125 9.78515625 27.1513671875 9.291015625 27.734375 9.1826171875 c 4
 28.1899564238 9.09827814706 28.6380235391 9.05798451374 29.0753949971 9.05798451374 c 0
 32.9398645479 9.05798451374 35.9693342843 12.2036702457 35.9693342843 15.9070969754 c 0
 35.9693342843 16.816617099 35.7866152758 17.7597767342 35.388671875 18.6982421875 c 4
 34.3859595315 21.0692670855 31.9990711198 22.93359375 29 22.93359375 c 4
13.7998046875 13.7333984375 m 4
 17.2416374098 13.7333984375 19.8643242217 16.8697270207 19.93359375 20.349609375 c 6
 19.93359375 32.93359375 l 5
 7.6669921875 32.93359375 l 5
 7.6669921875 23.490234375 l 5
 7.66015625 20.6669921875 l 6
 7.88637054834 16.8536654441 10.102065805 13.7333984375 13.7998046875 13.7333984375 c 4
EndSplineSet
Validated: 1
EndChar
StartChar: uni092C
Encoding: 2348 2348 22
GlifName: uni092C_
Width: 31
VWidth: 0
Flags: HW
LayerCount: 3
Fore
SplineSet
16.2007526526 26.2018955568 m 0
 18.7339500866 26.2018955568 21.4005644339 24.8499305457 22.93359375 23.1708984375 c 5
 22.93359375 31.93359375 l 5
 1.3330078125 31.93359375 l 5
 1.3330078125 34.06640625 l 5
 30.6669921875 34.06640625 l 5
 30.6669921875 31.93359375 l 5
 25.06640625 31.93359375 l 5
 25.06640625 19.1259765625 l 6
 25.2255859375 18.4404296875 25.31640625 17.69140625 25.31640625 17 c 4
 25.31640625 16.2626953125 25.06640625 15 25.06640625 15 c 5
 25.06640625 1 l 5
 22.93359375 1 l 5
 22.93359375 10.857421875 l 5
 21.4267455762 9.1472687889 18.8438911491 7.81285824276 16.0530692817 7.81285824276 c 0
 10.943982191 7.81285824276 6.93359375 11.9521408156 6.93359375 17 c 4
 6.93359375 22.2469473384 11.3704158001 26.2018955568 16.2007526526 26.2018955568 c 0
22.93359375 18.8603515625 m 6
 22.0091309984 21.6750104758 19.6480765149 24.0653182093 16.2172922678 24.0653182093 c 0
 14.2284529509 24.0653182093 12.7851559181 23.4452913968 11.5908203125 22.419921875 c 5
 22.056640625 13.109375 l 6
 22.4462890625 13.7021484375 22.7431640625 14.3701171875 22.93359375 15.126953125 c 6
 22.93359375 18.8603515625 l 6
9.06640625 17 m 4
 9.06640625 12.8513695907 12.5186377865 9.9664444154 16.1913351762 9.9664444154 c 0
 17.701285205 9.9664444154 19.2484998104 10.4540732858 20.6083984375 11.5419921875 c 5
 10.1796875 20.8203125 l 5
 9.44921875 19.7138671875 9.06640625 18.4609375 9.06640625 17 c 4
EndSplineSet
Validated: 1
EndChar
StartChar: uni092D
Encoding: 2349 2349 23
GlifName: uni092D_
Width: 39
VWidth: 0
Flags: HW
LayerCount: 3
Fore
SplineSet
9.3330078125 38.06640625 m 4
 12.1121229249 38.06640625 14.400390625 35.7795941368 14.400390625 33 c 6
 14.400390625 18.06640625 l 5
 29.599609375 18.06640625 l 5
 29.599609375 31.93359375 l 5
 20 31.93359375 l 5
 20 34.06640625 l 5
 38 34.06640625 l 5
 38 31.93359375 l 5
 31.7333984375 31.93359375 l 5
 31.7333984375 1 l 5
 29.599609375 1 l 5
 29.599609375 15.93359375 l 5
 14.3642578125 15.93359375 l 5
 14.1337890625 11.841796875 12.875 9.40625 11.3505859375 8.4912109375 c 4
 10.6525477383 8.07223676377 9.94696475805 7.8913126186 9.26563883574 7.8913126186 c 0
 6.91467674728 7.8913126186 4.85252953002 10.0454726084 4.3857421875 12.0068359375 c 4
 4.31827434696 12.2892239578 4.28306363677 12.6011014849 4.28306363677 12.9240011861 c 0
 4.28306363677 13.6340130747 4.45330721536 14.397317111 4.8251953125 15.017578125 c 4
 5.7265625 16.5205078125 11.2734375 17.3837890625 12.2666015625 17.52734375 c 6
 12.2666015625 28.8818359375 l 6
 11.435546875 28.310546875 10.3603515625 27.93359375 9.3330078125 27.93359375 c 4
 6.55486827882 27.93359375 4.2666015625 30.2209228464 4.2666015625 33 c 4
 4.2666015625 35.7779321748 6.55373217233 38.06640625 9.3330078125 38.06640625 c 4
6.400390625 33 m 4
 6.400390625 31.3597048637 7.69430012435 30.06640625 9.3330078125 30.06640625 c 4
 10.9733626043 30.06640625 12.2666015625 31.3613608204 12.2666015625 33 c 4
 12.2666015625 34.6397802583 10.9722256122 35.93359375 9.3330078125 35.93359375 c 4
 7.69316206077 35.93359375 6.400390625 34.6391567051 6.400390625 33 c 4
12.2587890625 15.90625 m 5
 9.94829456753 15.8111119914 7.45481074272 15.2549034586 6.654296875 13.919921875 c 4
 6.45708592396 13.5916610662 6.37148861479 13.256450574 6.37148861479 12.9275520702 c 0
 6.37148861479 11.6042409473 7.75715998022 10.3831099222 8.833984375 10.1279296875 c 4
 9.04618407474 10.0773198784 9.2266689998 10.0491914285 9.39540211083 10.0491914285 c 0
 9.68248933222 10.0491914285 9.93555673403 10.1306192649 10.2529296875 10.3212890625 c 4
 11.3095703125 10.9541015625 12.15625 12.435546875 12.2587890625 15.90625 c 5
EndSplineSet
Validated: 1
EndChar
StartChar: uni092E
Encoding: 2350 2350 24
GlifName: uni092E_
Width: 36
VWidth: 0
Flags: HW
LayerCount: 3
Fore
SplineSet
13.400390625 18.06640625 m 5
 28.599609375 18.06640625 l 5
 28.599609375 31.93359375 l 5
 13.400390625 31.93359375 l 5
 13.400390625 18.06640625 l 5
30.7333984375 1 m 5
 28.599609375 1 l 5
 28.599609375 15.93359375 l 5
 13.3642578125 15.93359375 l 5
 13.1337890625 11.841796875 11.875 9.40625 10.3505859375 8.4912109375 c 4
 9.65254773831 8.07223676377 8.94696475805 7.8913126186 8.26563883574 7.8913126186 c 0
 5.91467674728 7.8913126186 3.85252953002 10.0454726084 3.3857421875 12.0068359375 c 4
 3.31827434696 12.2892239578 3.28306363677 12.6011014849 3.28306363677 12.9240011861 c 0
 3.28306363677 13.6340130747 3.45330721536 14.397317111 3.8251953125 15.017578125 c 4
 4.7265625 16.5205078125 10.2734375 17.3837890625 11.2666015625 17.52734375 c 6
 11.2666015625 31.93359375 l 5
 1 31.93359375 l 5
 1 34.06640625 l 5
 37 34.06640625 l 5
 37 31.93359375 l 5
 30.7333984375 31.93359375 l 5
 30.7333984375 1 l 5
11.2587890625 15.90625 m 5
 8.94829456753 15.8111119914 6.45481074272 15.2549034586 5.654296875 13.919921875 c 4
 5.45708592396 13.5916610662 5.37148861479 13.256450574 5.37148861479 12.9275520702 c 0
 5.37148861479 11.6042409473 6.75715998022 10.3831099222 7.833984375 10.1279296875 c 4
 8.04618407474 10.0773198784 8.2266689998 10.0491914285 8.39540211083 10.0491914285 c 0
 8.68248933222 10.0491914285 8.93555673403 10.1306192649 9.2529296875 10.3212890625 c 4
 10.3095703125 10.9541015625 11.15625 12.435546875 11.2587890625 15.90625 c 5
EndSplineSet
Validated: 1
EndChar
StartChar: uni092F
Encoding: 2351 2351 25
GlifName: uni092F_
Width: 36
VWidth: 0
Flags: HW
LayerCount: 3
Fore
SplineSet
14.3291015625 27.6142578125 m 4
 14.5970018298 26.7355557272 14.7231209725 25.8442093301 14.7231209725 24.9645315706 c 0
 14.7231209725 20.0785523845 10.8323379608 15.5525513595 5.73445189057 15.5525513595 c 0
 5.35405685063 15.5525513595 4.96694081232 15.5777515653 4.57421875 15.6298828125 c 5
 6.28814884721 10.9832278823 10.2200992333 7.47339223473 15.0283203125 6.0986328125 c 4
 16.5420658698 5.66629244828 18.0680809288 5.45244359577 19.5708536108 5.45244359577 c 0
 23.3634001891 5.45244359577 27.0079146994 6.81445952703 29.93359375 9.4638671875 c 5
 29.93359375 31.93359375 l 5
 11.41796875 31.93359375 l 5
 12.7705078125 30.787109375 13.818359375 29.2900390625 14.3291015625 27.6142578125 c 4
32.06640625 1 m 5
 29.93359375 1 l 5
 29.93359375 6.779296875 l 5
 26.8113975677 4.58422769431 23.0227612823 3.38592947699 19.226367932 3.38592947699 c 0
 17.6163546234 3.38592947699 16.0049461872 3.60144642939 14.4423828125 4.0478515625 c 4
 11.4404296875 4.9052734375 8.65234375 6.591796875 6.5361328125 8.7431640625 c 4
 4.419921875 10.8935546875 2.2392578125 16.251953125 2.2392578125 16.251953125 c 6
 2.2375512099 16.2541986547 2.23671619285 16.2568593236 2.23671619285 16.2599167047 c 0
 2.23671619285 16.3233408261 2.59605579786 16.5574853709 2.98828125 16.7978515625 c 4
 3.01209241203 17.2173482113 3.04092588161 17.6805389357 3.04092588161 17.9140563439 c 0
 3.04092588161 18.0061638541 3.03643999319 18.0625389711 3.025390625 18.06640625 c 5
 3.0673828125 18.056640625 4.580078125 17.724609375 5.2412109375 17.708984375 c 4
 5.30131317199 17.7075825736 5.36119486741 17.7068860055 5.42085015301 17.7068860055 c 0
 9.55876160173 17.7068860055 12.6073422542 21.0583003231 12.6073422542 24.8692989394 c 0
 12.6073422542 25.5677510191 12.5049438151 26.2816400251 12.2880859375 26.9931640625 c 4
 11.490234375 29.6123046875 9.587890625 31.4423828125 6.908203125 31.93359375 c 6
 1 31.93359375 l 5
 1 34.06640625 l 5
 37 34.06640625 l 5
 37 31.93359375 l 5
 32.06640625 31.93359375 l 5
 32.06640625 1 l 5
3.025390625 18.06640625 m 5
 3.025390625 18.06640625 3.025390625 18.06640625 3.025390625 18.06640625 c 5
EndSplineSet
Validated: 1
EndChar
StartChar: uni0930
Encoding: 2352 2352 26
GlifName: uni0930
Width: 28
VWidth: 0
Flags: HW
LayerCount: 3
Fore
SplineSet
19.3330078125 25.599609375 m 4
 19.3330078125 28.4200464396 17.0942815385 30.8482449735 14.33984375 30.93359375 c 6
 2 30.93359375 l 5
 2 33.06640625 l 5
 26 33.06640625 l 5
 26 30.93359375 l 5
 19.2255859375 30.93359375 l 5
 20.572265625 29.5869140625 21.466796875 27.5849609375 21.466796875 25.599609375 c 4
 21.466796875 22.1637734829 19.057511509 19.0970627148 15.96875 18.447265625 c 5
 27.6328125 3.8662109375 l 5
 25.966796875 2.533203125 l 5
 13.1669921875 18.533203125 l 5
 14.07421875 19.259765625 l 6
 13.939453125 19.755859375 13.8125 20.244140625 13.7861328125 20.2451171875 c 5
 17.0095826412 20.3916376343 19.3330078125 22.4481571641 19.3330078125 25.599609375 c 4
13.7861328125 20.2451171875 m 5
 13.7861328125 20.2451171875 13.7861328125 20.2451171875 13.7861328125 20.2451171875 c 5
EndSplineSet
Validated: 1
EndChar
StartChar: uni0932
Encoding: 2354 2354 27
GlifName: uni0932
Width: 357
VWidth: 0
Flags: HW
LayerCount: 2
Fore
SplineSet
312.55078125 627.838867188 m 0
 307.23046875 627.838867188 302.783203125 623.391601562 302.783203125 618.071289062 c 2
 302.783203125 251.770507812 l 2
 302.783203125 246.44921875 307.23046875 242.002929688 312.55078125 242.002929688 c 0
 317.872070312 242.002929688 322.319335938 246.44921875 322.319335938 251.770507812 c 2
 322.319335938 618.071289062 l 2
 322.319335938 623.391601562 317.872070312 627.838867188 312.55078125 627.838867188 c 0
316.30859375 425.904296875 m 0
 321.219726562 427.950195312 323.614257812 433.766601562 321.567382812 438.677734375 c 0
 308.498046875 470.043945312 277.8515625 490.4765625 243.870117188 490.4765625 c 0
 209.888671875 490.4765625 179.2421875 470.044921875 166.171875 438.677734375 c 0
 164.125 433.766601562 166.51953125 427.950195312 171.431640625 425.904296875 c 0
 176.342773438 423.857421875 182.158203125 426.251953125 184.205078125 431.1640625 c 0
 194.241210938 455.249023438 217.776367188 470.940429688 243.870117188 470.940429688 c 0
 269.962890625 470.940429688 293.498046875 455.25 303.534179688 431.1640625 c 0
 305.581054688 426.251953125 311.396484375 423.857421875 316.30859375 425.904296875 c 0
5.984375 426.18359375 m 0
 10.744140625 423.8046875 16.7099609375 425.79296875 19.08984375 430.551757812 c 0
 30.966796875 454.3046875 59.79296875 470.940429688 92.7705078125 470.940429688 c 0
 125.749023438 470.940429688 154.575195312 454.3046875 166.452148438 430.551757812 c 0
 168.831054688 425.79296875 174.797851562 423.8046875 179.556640625 426.18359375 c 0
 184.31640625 428.563476562 186.3046875 434.530273438 183.924804688 439.2890625 c 0
 168.07421875 470.989257812 131.881835938 490.4765625 92.7705078125 490.4765625 c 0
 53.6591796875 490.4765625 17.4677734375 470.989257812 1.6162109375 439.2890625 c 0
 -0.7626953125 434.530273438 1.2255859375 428.563476562 5.984375 426.18359375 c 0
14.8798828125 443.576171875 m 0
 10.1650390625 446.041992188 4.1640625 444.162109375 1.697265625 439.447265625 c 0
 -17.6728515625 402.412109375 -18.0908203125 360.029296875 0.5673828125 322.713867188 c 0
 19.197265625 285.453125 54.8857421875 256.71875 98.9228515625 242.4765625 c 0
 103.985351562 240.838867188 109.584960938 243.702148438 111.22265625 248.764648438 c 0
 112.859375 253.827148438 109.997070312 259.426757812 104.934570312 261.064453125 c 0
 65.189453125 273.91796875 33.9755859375 299.580078125 18.041015625 331.451171875 c 0
 2.1318359375 363.267578125 2.4716796875 398.774414062 19.0087890625 430.393554688 c 0
 21.474609375 435.108398438 19.5947265625 441.110351562 14.8798828125 443.576171875 c 0
-40.623046875 618.071289062 m 0
 -40.623046875 612.75 -36.17578125 608.302734375 -30.85546875 608.302734375 c 2
 381.232421875 608.302734375 l 2
 386.552734375 608.302734375 391 612.75 391 618.071289062 c 0
 391 623.391601562 386.552734375 627.838867188 381.232421875 627.838867188 c 2
 -30.85546875 627.838867188 l 2
 -36.17578125 627.838867188 -40.623046875 623.391601562 -40.623046875 618.071289062 c 0
EndSplineSet
Validated: 524325
EndChar
StartChar: uni0935
Encoding: 2357 2357 28
Width: 400
VWidth: 0
Flags: HW
LayerCount: 2
Fore
SplineSet
291.5703125 627.838867188 m 0
 286.249023438 627.838867188 281.801757812 623.391601562 281.801757812 618.071289062 c 2
 281.801757812 251.770507812 l 2
 281.801757812 246.44921875 286.249023438 242.002929688 291.5703125 242.002929688 c 0
 296.890625 242.002929688 301.337890625 246.44921875 301.337890625 251.770507812 c 2
 301.337890625 618.071289062 l 2
 301.337890625 623.391601562 296.890625 627.838867188 291.5703125 627.838867188 c 0
293.974609375 448.346679688 m 0
 299.131835938 449.65625 302.34765625 455.061523438 301.038085938 460.21875 c 0
 288.279296875 510.454101562 240.108398438 543.330078125 188.678710938 536.900390625 c 0
 137.247070312 530.47265625 98.65234375 486.751953125 98.65234375 434.920898438 c 0
 98.65234375 383.090820312 137.247070312 339.370117188 188.677734375 332.939453125 c 0
 240.108398438 326.51171875 288.279296875 359.38671875 301.038085938 409.622070312 c 0
 302.34765625 414.779296875 299.131835938 420.184570312 293.974609375 421.494140625 c 0
 288.817382812 422.803710938 283.412109375 419.587890625 282.102539062 414.431640625 c 0
 271.76953125 373.743164062 232.7578125 347.118164062 191.1015625 352.325195312 c 0
 149.4453125 357.533203125 118.188476562 392.94140625 118.188476562 434.920898438 c 0
 118.188476562 476.901367188 149.4453125 512.309570312 191.100585938 517.514648438 c 0
 232.7578125 522.72265625 271.76953125 496.098632812 282.102539062 455.41015625 c 0
 283.412109375 450.252929688 288.817382812 447.037109375 293.974609375 448.346679688 c 0
289.166015625 402.559570312 m 0
 294.323242188 401.25 299.727539062 404.465820312 301.038085938 409.622070312 c 0
 305.25390625 426.224609375 305.25390625 443.6171875 301.038085938 460.21875 c 0
 299.727539062 465.375976562 294.323242188 468.591796875 289.166015625 467.282226562 c 0
 284.008789062 465.971679688 280.79296875 460.567382812 282.102539062 455.41015625 c 0
 285.517578125 441.963867188 285.517578125 427.876953125 282.102539062 414.431640625 c 0
 280.79296875 409.274414062 284.008789062 403.869140625 289.166015625 402.559570312 c 0
22.33984375 618.071289062 m 0
 22.33984375 612.75 26.787109375 608.302734375 32.107421875 608.302734375 c 2
 367.8828125 608.302734375 l 2
 373.203125 608.302734375 377.650390625 612.75 377.650390625 618.071289062 c 0
 377.650390625 623.391601562 373.203125 627.838867188 367.8828125 627.838867188 c 2
 32.107421875 627.838867188 l 2
 26.787109375 627.838867188 22.33984375 623.391601562 22.33984375 618.071289062 c 0
EndSplineSet
EndChar
StartChar: uni0936
Encoding: 2358 2358 29
GlifName: uni0936
Width: 38
VWidth: 0
Flags: HW
LayerCount: 3
Fore
SplineSet
13.3330078125 23.93359375 m 4
 10.5540462663 23.93359375 8.2666015625 26.2198889706 8.2666015625 29 c 4
 8.2666015625 30.02734375 8.6435546875 31.1025390625 9.21484375 31.93359375 c 6
 2 31.93359375 l 5
 2 34.06640625 l 5
 38 34.06640625 l 5
 38 31.93359375 l 5
 31.7333984375 31.93359375 l 5
 31.7333984375 1 l 5
 29.599609375 1 l 5
 29.599609375 31.93359375 l 5
 17.7509765625 31.93359375 l 5
 19.103515625 30.787109375 20.1513671875 29.2900390625 20.662109375 27.6142578125 c 4
 20.9364763048 26.7134381651 21.0656933582 25.8089406955 21.0656933582 24.9225981057 c 0
 21.0656933582 19.9682242659 17.0283643245 15.5810915243 11.736328125 15.57421875 c 5
 22.1865234375 1.6396484375 l 5
 20.4794921875 0.3603515625 l 5
 8.4794921875 16.3603515625 l 5
 9.3330078125 17 l 6
 9.35305394764 17.3608304325 9.37355729597 17.7212036517 9.37355729597 17.9168764518 c 0
 9.37355729597 18.0071740658 9.36919096734 18.0623975961 9.3583984375 18.06640625 c 5
 9.400390625 18.056640625 10.9130859375 17.724609375 11.57421875 17.708984375 c 4
 11.6356634604 17.7075512622 11.6968486532 17.7068392675 11.7577692442 17.7068392675 c 0
 15.9711699513 17.7068392675 18.9188727448 21.1125995745 18.9188727448 24.905832986 c 0
 18.9188727448 25.906592168 18.7136980834 26.9343213902 18.2724609375 27.93359375 c 5
 17.7595355033 25.7235541617 15.8615205145 23.93359375 13.3330078125 23.93359375 c 4
10.3994140625 29 m 4
 10.3994140625 27.3602197417 11.6943686329 26.06640625 13.3330078125 26.06640625 c 4
 14.9725188381 26.06640625 16.2666015625 27.3613608204 16.2666015625 29 c 4
 16.2666015625 29.9956471953 15.86431056 30.6994691757 15.1875 31.2783203125 c 4
 14.59765625 31.58203125 13.9482421875 31.802734375 13.24609375 31.9326171875 c 4
 11.6623038988 31.8994295073 10.3994140625 30.6095591002 10.3994140625 29 c 4
EndSplineSet
Validated: 1
EndChar
StartChar: uni0937
Encoding: 2359 2359 30
GlifName: uni0937
Width: 37
VWidth: 0
Flags: HW
LayerCount: 3
Fore
SplineSet
12.0615234375 20.2001953125 m 1
 12.4349596364 16.3271284491 15.0531173767 13.4951171875 19 13.4951171875 c 0
 22.6159209927 13.4951171875 25.6378766721 16.2913281997 25.9111328125 19.705078125 c 1
 12.06640625 30.7802734375 l 1
 12.0615234375 20.2001953125 l 1
25.93359375 14.59375 m 1
 24.4112228265 12.7424245553 21.7373737481 11.3623046875 19 11.3623046875 c 0
 15.1913856826 11.3623046875 12.0346620199 13.7944250851 10.720703125 16.7236328125 c 0
 10.0937806682 18.1218436649 10.030090582 19.7461523242 9.93359375 20.2001953125 c 2
 9.93359375 31.93359375 l 1
 1 31.93359375 l 1
 1 34.06640625 l 1
 37 34.06640625 l 1
 37 31.93359375 l 1
 28.06640625 31.93359375 l 1
 28.06640625 1 l 1
 25.93359375 1 l 1
 25.93359375 14.59375 l 1
25.93359375 22.4189453125 m 1
 25.93359375 31.93359375 l 1
 14.041015625 31.93359375 l 1
 25.93359375 22.4189453125 l 1
EndSplineSet
Validated: 1
EndChar
StartChar: uni0938
Encoding: 2360 2360 31
GlifName: uni0938
Width: 37
VWidth: 0
Flags: HW
LayerCount: 3
Fore
SplineSet
12.41796875 32.93359375 m 5
 14.2716592636 31.3623066287 15.7043788045 28.8416479146 15.7043788045 25.9199908906 c 0
 15.7043788045 24.7544099137 15.4763510969 23.5250071471 14.9560546875 22.2666015625 c 5
 30.93359375 22.2666015625 l 5
 30.93359375 32.93359375 l 5
 12.41796875 32.93359375 l 5
13.73046875 20.1337890625 m 5
 12.1525588659 18.0845554467 9.68393773429 16.5784792921 6.4033203125 16.57421875 c 5
 16.853515625 2.6396484375 l 5
 15.146484375 1.3603515625 l 5
 3.146484375 17.3603515625 l 5
 4 18 l 6
 4.02060170751 18.3588684534 4.04075116041 18.7172846522 4.04075116041 18.9136700167 c 0
 4.04075116041 19.0058655892 4.03631032015 19.0623503632 4.025390625 19.06640625 c 5
 4.0673828125 19.056640625 5.580078125 18.724609375 6.2412109375 18.708984375 c 4
 6.30131317199 18.7075825736 6.36119486741 18.7068860055 6.42085015301 18.7068860055 c 0
 10.5587616017 18.7068860055 13.6073422542 22.0583003231 13.6073422542 25.8692989394 c 0
 13.6073422542 26.5677510191 13.5049438151 27.2816400251 13.2880859375 27.9931640625 c 4
 12.490234375 30.6123046875 10.587890625 32.4423828125 7.908203125 32.93359375 c 6
 2 32.93359375 l 5
 2 35.06640625 l 5
 38 35.06640625 l 5
 38 32.93359375 l 5
 33.06640625 32.93359375 l 5
 33.06640625 2 l 5
 30.93359375 2 l 5
 30.93359375 20.1337890625 l 5
 13.73046875 20.1337890625 l 5
4.025390625 19.06640625 m 5
 4.025390625 19.06640625 4.025390625 19.06640625 4.025390625 19.06640625 c 5
EndSplineSet
Validated: 1
EndChar
StartChar: uni0939
Encoding: 2361 2361 32
GlifName: uni0939
Width: 28
VWidth: 0
Flags: HW
LayerCount: 3
Fore
SplineSet
10.18359375 21.533203125 m 2
 7.28703225258 20.7865953882 5.4248900889 18.8501827512 5.4248900889 15.2961759836 c 0
 5.4248900889 14.0536619023 5.70491120057 12.7024430032 6.3017578125 11.244140625 c 0
 7.3984375 8.56640625 9.2431640625 6.41796875 11.5107421875 4.9130859375 c 0
 13.3286806102 3.70664305708 15.1930369838 3.00952591221 17.0283868899 3.00952591221 c 0
 17.4675443261 3.00952591221 17.905041038 3.04943837238 18.33984375 3.1318359375 c 2
 18.6904296875 1.0283203125 l 2
 18.2366740965 0.961332687529 17.7718199709 0.928755959975 17.3004799757 0.928755959975 c 0
 11.0595245086 0.928755959975 6.27142044228 5.68736464464 4.3271484375 10.435546875 c 0
 3.64162307472 12.110551839 3.3297697118 13.7406471113 3.3297697118 15.2507756185 c 0
 3.3297697118 18.4389416731 4.7197367023 21.0924017946 6.91796875 22.5048828125 c 1
 5.4342116451 23.4271075324 4.248046875 25.3452647585 4.248046875 27.400390625 c 0
 4.248046875 29.8977106384 5.88259471416 31.9803338555 7.8310546875 32.8056640625 c 0
 8.87795673412 33.248643113 9.63490550252 33.169633762 10.115234375 33.2666015625 c 2
 21.0478515625 33.2666015625 l 1
 21.0478515625 35.93359375 l 1
 1.6669921875 35.93359375 l 1
 1.6669921875 38.06640625 l 1
 28.3330078125 38.06640625 l 1
 28.3330078125 35.93359375 l 1
 23.181640625 35.93359375 l 1
 23.181640625 32.2001953125 l 1
 22.115234375 32.2001953125 l 1
 22.115234375 31.1337890625 l 1
 10.115234375 31.1396484375 l 1
 7.93414381039 30.9825359816 6.3818359375 29.5658864524 6.3818359375 27.400390625 c 0
 6.3818359375 25.3986802209 7.97918390906 23.6639135476 9.96980496679 23.6639135476 c 0
 10.0180560884 23.6639135476 10.0665382737 23.6649327929 10.115234375 23.6669921875 c 2
 18.5146484375 23.6669921875 l 2
 21.847818551 23.575568093 24.8632420883 21.0956224914 24.8977903574 17.5484733914 c 0
 24.8977903574 15.9104714305 24.298382095 15.027999617 23.7513622021 15.027999617 c 0
 23.292276118 15.027999617 22.8700892296 15.6495593327 22.8701171875 16.986328125 c 0
 22.7125497246 19.5293551279 21.1746446169 21.5364087029 18.6878083721 21.5364087029 c 0
 18.6305890152 21.5364087029 18.5728672853 21.5353461501 18.5146484375 21.533203125 c 2
 10.18359375 21.533203125 l 2
EndSplineSet
Validated: 1
EndChar
